<?xml version="1.0" encoding="utf-8"?>
<!-- Generator: Adobe Illustrator 21.0.0, SVG Export Plug-In . SVG Version: 6.00 Build 0)  -->
<svg version="1.1" id="Layer_1" xmlns="http://www.w3.org/2000/svg" xmlns:xlink="http://www.w3.org/1999/xlink" x="0px" y="0px" width="150px" height="20px"
	 viewBox="0 0 120 15" style="enable-background:new 0 0 120 15;" xml:space="preserve">
<style type="text/css">
	.st0{fill:#FFFFFF;}
</style>
<g>
	<path class="st0" d="M1.1,2.5h4.1c1,0,1.9,0.3,2.5,0.8c0.6,0.5,0.9,1.1,0.9,1.9c0,1.1-0.7,1.9-2,2.3c0.7,0.1,1.2,0.4,1.6,0.9
		c0.4,0.5,0.6,1,0.6,1.7c0,0.8-0.3,1.4-0.9,1.9c-0.6,0.5-1.4,0.7-2.4,0.7H1.1V2.5z M3.2,4v2.6H5c0.5,0,0.8-0.1,1.1-0.3
		c0.3-0.2,0.4-0.6,0.4-1s-0.1-0.7-0.4-1C5.8,4.1,5.5,4,5,4H3.2z M3.2,11h2.1c0.5,0,0.8-0.1,1.1-0.4c0.3-0.2,0.4-0.6,0.4-1
		c0-0.4-0.1-0.8-0.4-1S5.7,8.2,5.2,8.2H3.2V11z"/>
	<path class="st0" d="M17.2,12.6l-0.7-1.9h-4L12,12.6H9.8l3.6-10.2h2.4l3.6,10.2H17.2z M13.2,9.1h2.9l-1.5-4.2L13.2,9.1z"/>
	<path class="st0" d="M21.8,11.2c-1-1-1.5-2.2-1.5-3.7c0-1.5,0.5-2.7,1.5-3.7c1-1,2.2-1.5,3.7-1.5c1.1,0,2.1,0.3,2.9,0.8
		c0.9,0.6,1.5,1.4,1.8,2.4h-2.5c-0.5-0.9-1.2-1.3-2.3-1.3c-0.9,0-1.7,0.3-2.2,0.9c-0.6,0.6-0.9,1.4-0.9,2.4c0,1,0.3,1.8,0.9,2.4
		c0.6,0.6,1.3,0.9,2.2,0.9c1.1,0,1.9-0.4,2.3-1.3h2.5c-0.4,1-1,1.8-1.8,2.4c-0.9,0.6-1.8,0.8-2.9,0.8C24,12.7,22.8,12.2,21.8,11.2z"
		/>
	<path class="st0" d="M34.1,12.6H32V2.5h2.1V7l3.7-4.5h2.7L36,7.5l4.4,5.1h-2.7l-3.7-4.5V12.6z"/>
	<path class="st0" d="M47.7,2.4V4h-3.8v2.7h3.4v1.6h-3.4V11h3.8v1.6h-5.9V2.4H47.7z"/>
	<path class="st0" d="M56.4,2.4h2.1v10.2h-2.1l-4.6-7v7h-2.1V2.4h2.1l4.6,7V2.4z"/>
	<path class="st0" d="M64.1,2.5c1.6,0,2.9,0.5,3.9,1.4c1,0.9,1.5,2.2,1.5,3.7c0,1.5-0.5,2.8-1.5,3.7c-1,0.9-2.3,1.4-3.9,1.4h-3.4
		V2.5H64.1z M62.7,11h1.4c1.1,0,1.9-0.3,2.5-0.9c0.6-0.6,0.9-1.5,0.9-2.6c0-1.1-0.3-1.9-0.9-2.6S65.2,4,64.1,4h-1.4V11z"/>
	<path class="st0" d="M82.2,7.5c-0.3,0.3-0.6,0.6-1.1,0.8c-0.5,0.2-1.1,0.3-1.8,0.3h-1.7v4h-2.1V2.5h3.7c1.2,0,2.1,0.3,2.7,0.9
		s1,1.3,1,2.1S82.7,6.9,82.2,7.5z M77.6,7h1.7c0.5,0,0.9-0.1,1.2-0.4s0.4-0.6,0.4-1.1c0-0.5-0.1-0.8-0.4-1.1S79.8,4,79.3,4h-1.7V7z"
		/>
	<path class="st0" d="M91.1,12.6l-0.7-1.9h-4l-0.7,1.9h-2.2l3.6-10.2h2.4l3.6,10.2H91.1z M87.1,9.1H90l-1.5-4.2L87.1,9.1z"/>
	<path class="st0" d="M101.4,2.4h2.1v10.2h-2.1l-4.6-7v7h-2.1V2.4h2.1l4.6,7V2.4z"/>
	<path class="st0" d="M111.5,2.4V4h-3.8v2.7h3.4v1.6h-3.4V11h3.8v1.6h-5.9V2.4H111.5z"/>
	<path class="st0" d="M113.6,2.5h2.1V11h3.3v1.6h-5.3V2.5z"/>
</g>
</svg>
