<?xml version="1.0" encoding="utf-8"?>
<!-- Generator: Adobe Illustrator 21.0.0, SVG Export Plug-In . SVG Version: 6.00 Build 0)  -->
<svg version="1.1" id="Layer_1" xmlns="http://www.w3.org/2000/svg" xmlns:xlink="http://www.w3.org/1999/xlink" x="0px" y="0px"
	 viewBox="0 0 120 82" style="enable-background:new 0 0 120 82;" xml:space="preserve">
<style type="text/css">
	.st0{fill:#FFFFFF;}
</style>
<path class="st0" d="M10.9,76c1-1.8,1-3.8,0.6-5.8C11,68.4,10,67,8.1,66.7s-3.7,0.1-4.8,1.8c-0.1,0.1-0.1,0.2-0.1,0.3
	C3.1,68.7,3,68.7,3,68.6c0-2.5,0-4.9,0-7.4c-0.6,0-1.2,0-1.8,0c0,5.8,0,11.4,0,17.1c0.6,0,1.2,0,1.8,0c0-0.5,0-1,0-1.4
	c0.7,0.9,1.6,1.4,2.6,1.8c0.7,0,1.4,0,2.1,0c0.1,0,0.1-0.1,0.2-0.1C9.1,78.4,10.2,77.4,10.9,76z M5.8,77.2C4.2,77,3,76,3,74.4
	c-0.1-1.2-0.1-2.4,0.2-3.5c0.5-1.9,2.3-3,4.2-2.5c1.4,0.3,2,1.4,2.3,2.6c0.1,0.5,0.2,1,0.2,1.5c0,0,0.1,0,0.1,0.1
	c-0.2,1-0.4,1.9-0.7,2.8C8.6,76.8,7.2,77.4,5.8,77.2z"/>
<path class="st0" d="M22.6,77.6c0-0.5,0-1,0-1.4c-0.1,0-0.1,0-0.1,0c-0.1,0.1-0.2,0.1-0.3,0.2c-0.9,0.6-1.8,1-2.8,1
	c-2.7,0.2-4.3-1.6-4.2-4.1c2.7,0,5.4,0,8.2,0c-0.1-1-0.1-1.8-0.2-2.7c-0.4-1.8-1.3-3.2-3.2-3.6c-2.5-0.6-4.5,0.2-5.8,2.4
	c-1.3,2.2-1.2,4.4-0.3,6.6c0.5,1.4,1.5,2.2,2.8,2.7c0.2,0.1,0.5,0.2,0.7,0.2c0.8,0,1.7,0,2.5,0c0.8-0.3,1.6-0.6,2.3-0.9
	C22.4,77.8,22.6,77.6,22.6,77.6z M18.7,68.2c1.7,0,2.7,1.4,2.7,3.4c-2.1,0-4.1,0-6.2,0C15.4,69.6,16.9,68.1,18.7,68.2z"/>
<path class="st0" d="M108.6,76.9L108.6,76.9c0.1,0.6,0.1,1.1,0.1,1.6c0.6,0,1.2,0,1.9,0c0-0.6,0-1.3,0-1.9c0-2.2,0-4.2,0-6.4
	c-0.1-1.8-1-3.1-2.7-3.5c-1.8-0.3-3.5-0.2-5.1,0.8c-0.1,0.1-0.2,0.2-0.2,0.3c0,0.6,0,1.1,0,1.7c0.2-0.1,0.2-0.1,0.3-0.1
	c0.8-0.6,1.7-1,2.6-1.2c1.8-0.4,3.2,0.6,3.3,2.5c0,0.3-0.1,0.4-0.4,0.5c-0.7,0.1-1.4,0.2-2.1,0.2c-1,0.2-1.9,0.3-2.8,0.6
	c-2.1,0.7-2.8,3.6-1.5,5.4c0.5,0.7,1.2,1,2,1.3c0.7,0,1.4,0,2.2,0C107.2,78.4,108.1,77.9,108.6,76.9z M107,76.9
	c-1.4,0.7-3,0.3-3.4-1c-0.3-0.8-0.1-2.2,1.2-2.6c0.5-0.2,1-0.2,1.5-0.4c0.8-0.2,1.7-0.2,2.5-0.3C109,74.6,108.4,76.1,107,76.9z"/>
<path class="st0" d="M50.4,76.8c0,0.2,0.1,0.3,0.1,0.4c0.1,1.4,0.1,1.4,1.5,1.4c0.3,0,0.4-0.2,0.4-0.4c0-2.7,0-5.5-0.1-8.2
	c-0.1-1.5-1-2.7-2.4-3c-1.8-0.5-3.6-0.2-5.3,0.7c-0.1,0.1-0.2,0.2-0.2,0.3c0,0.6,0,1,0,1.7c0.2-0.2,0.4-0.2,0.6-0.4
	c1-0.7,2.1-1,3.3-1c1.7,0,2.5,1.4,2.2,3c-1.1,0.2-2.3,0.3-3.4,0.5c-2.3,0.2-3.7,1.5-3.8,3.7c-0.1,1.7,0.8,2.9,2.4,3.4
	c0.1,0,0.2,0.1,0.3,0.1c0.6,0,1.2,0,1.8,0C48.9,78.4,49.8,77.9,50.4,76.8z M46.2,77c-0.7-0.3-1.2-0.9-1.2-1.7c0-1,0.2-1.6,1-1.8
	c1-0.3,1.9-0.5,3-0.6c0.4-0.1,0.9-0.1,1.4-0.2c0.1,1.4,0.1,2.6-0.9,3.6C48.8,77.2,47.4,77.5,46.2,77z"/>
<path class="st0" d="M77.8,76.9c0.1,0,0.1,0.1,0.2,0.1c0,0.5,0,1,0,1.5c0.5,0,0.9,0,1.3,0c0.5,0.1,0.6-0.2,0.6-0.6c0-3.4,0-6.6,0-10
	c0-0.3,0-0.7,0-1c-0.6,0-1.3,0-1.9,0c0,0.2,0,0.3,0,0.5c0,2,0,4.1,0,6.1c0,0.5-0.1,1-0.2,1.5c-0.5,1.6-1.8,2.2-3,2.2
	c-1.5-0.1-2.5-1-2.6-2.8c-0.1-2.2-0.1-4.3-0.1-6.5c0-0.3,0-0.7,0-1c-0.6,0-1.3,0-1.8,0c0,0.1-0.1,0.2-0.1,0.3c0,2.6,0,5.2,0.1,7.8
	c0,1,0.3,2.1,1.2,2.8c0.5,0.4,1.1,0.6,1.7,1c0.7,0,1.5,0,2.2,0C76.3,78.4,77.1,77.8,77.8,76.9z"/>
<path class="st0" d="M118.9,76.9c-0.2,0.1-0.6,0.2-0.8,0.2c-1,0.2-1.9-0.2-2-1.4c-0.1-2.2-0.1-4.6-0.1-6.8c0-0.3,0.2-0.4,0.5-0.4
	c0.7,0,1.4,0,2.1,0c0.2,0,0.4-0.2,0.4-0.3c0.1-0.4,0-0.9,0-1.4c-1,0-1.9,0-3,0c0-1.2,0-2.3,0-3.4c-0.6,0.2-1,0.3-1.4,0.5
	c-0.4,0.1-0.5,0.2-0.5,0.6c0,0.8,0,1.6,0,2.4c-0.7,0-1.4,0-2,0c0,0.6,0,1,0,1.6c0.6,0,1,0,1.5,0c0.3,0,0.4,0.1,0.4,0.4
	c0,0.2,0,0.4,0,0.6c0,2.2,0,4.4,0.1,6.6c0,0.8,0.2,1.5,0.9,2c0.3,0.3,0.8,0.5,1.2,0.7c0.6,0,1.3,0,1.9,0
	C119,78.4,119.1,78.1,118.9,76.9z"/>
<path class="st0" d="M32.9,28c3.4-0.3,6.6-1.1,9.8-2.2c5.1-1.6,10-3.8,14.9-5.9c3.1-1.4,6.2-2.7,9.4-3.6c1.2-0.3,2.4-0.5,3.6-0.5
	c1.9,0,3.3,1.2,4.5,2.6c0.6,0.7,1.1,1.4,1.7,2.2c0.1-0.1,0.2-0.2,0.2-0.2c1.4-3.1,1.2-6.2-0.9-9c-2.9-3.9-7-5.6-11.7-5.8
	c-2.8-0.2-5.4,0.7-7.9,2.1C55.7,8,55,8.5,54.2,9C54.1,8.9,54,8.8,54,8.8c-1.3-1.7-2.6-3.3-4.5-4.5c-1.4-0.9-2.9-1.3-4.6-1
	c-2.3,0.5-4.1,1.8-5.5,3.6c-1.2,1.5-1.6,3.3-1.3,5.2c0.5,2.6,2.1,4.6,4.2,6.2c0.4,0.3,0.9,0.6,1.4,1C42.4,20,41,21,39.6,21.8
	c-3.6,2-7.4,3.1-11.5,3.2c-2.3,0-4.6-0.2-6.9-0.6c-3.4-0.6-6.6-1.6-9.6-3.4c-2.8-1.7-5.2-3.8-7.2-6.4c-0.4-0.6-0.9-1-1.5-1.2
	c-0.5-0.2-1-0.1-1.4,0.3c-0.3,0.4-0.3,0.9-0.2,1.4c0.1,0.2,0.2,0.5,0.5,0.7c3.2,4,7,7.2,11.8,9.3c3.1,1.4,6.4,2.2,9.8,2.6
	C26.6,28.2,29.7,28.3,32.9,28z"/>
<path class="st0" d="M118.2,31.5c-0.5-0.6-1-1.2-1.5-1.8c-4-4.5-8.9-7.5-14.6-9.2c-2.3-0.6-4.6-1-7-1.3c-5-0.4-9.9-0.1-14.7,1.3
	c-2.6,0.7-5.3,1.6-7.8,2.6c-4.2,1.7-8.3,3.5-12.5,5.2c-2.9,1.2-5.7,2.4-8.7,3c-1.8,0.3-3.4,0.3-4.9-0.9c-0.8-0.7-1.6-1.5-2.3-2.3
	c-0.4-0.4-0.7-0.9-1.1-1.4c-1.3,3-1.4,5.8,0.2,8.5c2.6,4.2,6.6,6,11.3,6.5c3.8,0.4,7.3-1,10.5-3c0.6-0.4,0.6-0.4,1,0.2
	c1,1.4,2.2,2.8,3.8,3.8c1.8,1.2,3.7,1.8,5.7,1.1c1.8-0.6,3.3-1.7,4.6-3.1c1.6-1.9,2-4.2,1.2-6.6c-0.6-1.6-1.5-3-2.8-4.2
	c-0.7-0.6-1.5-1.2-2.4-1.8c1.8-1.4,3.7-2.5,5.7-3.4c3.4-1.6,6.9-2.5,10.6-2.4s7.4,0.6,10.9,1.7c2.6,0.9,5,2.1,7.3,3.7
	c2,1.4,3.7,3.2,5.2,5.1c0.4,0.6,1,1,1.7,1c0.7,0.1,1.3-0.4,1.2-1.1C118.6,32.3,118.5,31.8,118.2,31.5z"/>
<path class="st0" d="M98.9,68.4c-0.8-2.1-3.6-2.2-5.3-1.4c-0.7,0.4-1.4,1.1-2,1.7c-0.6-1.3-1.6-2.1-3.2-2.1c-1.5,0-2.6,0.6-3.6,1.8
	c0-0.5,0-1,0-1.5c-0.6,0-1.3,0-1.9,0c0,3.9,0,7.8,0,11.6c0.6,0,1.3,0,1.9,0c0-0.2,0-0.4,0-0.6c0-2,0-4,0-6.1c0-0.6,0.1-1,0.2-1.6
	c0.3-1.2,1.4-2.1,2.5-2.1c1.3,0,2.2,0.6,2.5,1.9c0.2,0.5,0.2,1,0.2,1.6c0,2.1,0,4.2,0,6.2c0,0.2,0,0.4,0,0.6c0.6,0,1.2,0,1.9,0
	c0-0.3,0-0.6,0-0.9c0-2,0-4.1,0-6.1c0-1.1,0.5-2,1.2-2.7c1.1-1.1,3.4-0.7,3.8,0.9c0.2,0.7,0.3,1.5,0.3,2.2c0.1,2.1,0,4.1,0,6.2
	c0,0.2,0,0.3,0,0.5c0.6,0,1.2,0,1.8,0c0-0.1,0.1-0.2,0.1-0.3c0-2.3,0.1-4.7,0-7C99.4,70.3,99.2,69.3,98.9,68.4z"/>
<path class="st0" d="M64.9,70.8c0-1-0.2-1.9-0.7-2.8c-1-1.7-3.7-1.8-5.1-1c-0.7,0.4-1.3,1-1.9,1.5c0-2.3,0-4.7,0-7.2
	c-0.6,0-1.3,0-1.9,0c0,0.2,0,0.5,0,0.7c0,5,0,9.9,0,14.9c0,0.4,0,0.8,0,1.2c0,0.2,0.2,0.3,0.3,0.3c0.5,0,1,0,1.6,0
	c0-0.3,0-0.5,0-0.7c0-2.1,0-4.2,0-6.2c0-1,0.3-1.8,1-2.6c0.8-0.9,1.8-1.1,3-0.8c1,0.3,1.5,1.1,1.7,2.1c0.1,0.6,0.2,1.2,0.2,1.8
	c0,1.9,0,3.8,0,5.8c0,0.2,0,0.4,0.1,0.6c0.5,0,1,0,1.4,0c0.3,0,0.4-0.1,0.4-0.4C64.9,75.7,65,73.3,64.9,70.8z"/>
<path class="st0" d="M42.3,66.9c-0.9,0-1.5,0-2.2,0c-0.2,0-0.3,0.2-0.5,0.2c-0.8,0.8-1.5,1.6-2.2,2.5c-0.8,0.8-1.5,1.7-2.3,2.5
	c-0.1,0-0.1,0-0.2,0c0-3.6,0-7.1,0-10.7c-0.6,0-1.3,0-1.8,0c0,5.8,0,11.4,0,17.2c0.5,0,0.9,0,1.4,0c0.4,0,0.5-0.2,0.5-0.6
	c0-1.4,0-2.9,0-4.2c0-0.2,0-0.4,0.1-0.6c0.1,0,0.1-0.1,0.2-0.1c0.1,0.1,0.2,0.2,0.2,0.3c1.4,1.6,3,3.2,4.4,4.8
	c0.1,0.2,0.2,0.3,0.4,0.3c0.8,0,1.6,0,2.6,0c-2-2.1-3.9-4.1-5.8-6C38.7,70.6,40.5,68.8,42.3,66.9z"/>
<path class="st0" d="M31.2,66.7c-1-0.2-1.8,0-2.6,0.7c-0.5,0.5-0.9,1.1-1.3,1.6c0-0.6,0-1.4,0-2.2c-0.6,0-1.2,0-1.8,0
	c0,3.8,0,7.7,0,11.6c0.6,0,1.2,0,1.8,0c0-2-0.1-4,0-6c0-0.8,0.2-1.7,0.5-2.4c0.6-1.5,1.9-2,3.5-1.4c0.1,0,0.2,0,0.2,0
	c0-0.6,0-1,0-1.5C31.7,66.8,31.5,66.8,31.2,66.7z"/>
<g>
	<g>
		<path class="st0" d="M17.5,52.6c0.2-0.1,0.3-0.2,0.5-0.2c1.1-0.6,1.6-1.7,1.4-3c-0.2-1-1-1.9-2.1-2.1c-1.4-0.2-2.9-0.2-4.3-0.2
			c0,3.9,0,7.8,0,11.6c1.4,0,2.8,0,4.2,0c0.4,0,0.9-0.2,1.3-0.4c1.3-0.7,1.8-2,1.6-3.6C19.8,53.6,18.9,52.8,17.5,52.6z M14.3,48.4
			c0.9,0,1.7,0,2.5,0.2c0.6,0.1,1.1,0.5,1.2,1.2c0.1,0.8,0,1.5-0.8,2C16.8,52,16.4,52,16,52.1c-0.6,0.1-1.1,0-1.8,0
			c0-0.2,0-0.2,0-0.3C14.3,50.7,14.3,49.6,14.3,48.4z M17.2,57.3c-0.2,0.1-0.4,0.1-0.6,0.2c-0.7,0-1.5,0-2.3,0c0-1.4,0-2.7,0-4.2
			c1,0.1,2,0.1,3,0.3c1,0.2,1.4,0.9,1.4,1.8C18.7,56.4,18.1,57.1,17.2,57.3z"/>
		<path class="st0" d="M85.5,58.7c0-2,0.2-4,0-6c-0.2-1.9-1.5-2.7-3.4-2.3c-0.9,0.2-1.5,0.7-2,1.6c-0.5-1.1-1.2-1.6-2.3-1.7
			c-1,0-1.9,0.5-2.6,1.3c0-0.4,0-0.7,0-1c-0.5,0-0.9,0-1.3,0c0,2.7,0,5.4,0,8.2c0.5,0,0.9,0,1.3,0c0-1.6,0-3.1,0-4.7
			c0-0.6,0.2-1,0.3-1.5c0.3-0.8,1.1-1.2,1.9-1c0.9,0.2,1.4,0.6,1.5,1.5c0.1,0.3,0.1,0.7,0.1,1c0,1.4,0,2.8,0,4.2c0,0.2,0,0.3,0,0.5
			c0.4,0,0.8,0,1.3,0c0-0.2,0-0.5,0-0.6c0-1.4,0-2.7,0-4.1c0-0.9,0.3-1.6,0.9-2.2c0.8-0.7,2.6-0.6,2.9,0.9c0.1,0.4,0.1,0.8,0.1,1.2
			c0,1.4,0,2.8,0,4.2c0,0.2,0,0.4,0,0.6C84.7,58.7,85.1,58.7,85.5,58.7z"/>
		<path class="st0" d="M90.5,58.8c0.4-0.1,0.8,0.2,1-0.5c0.5-1.8,1.1-3.6,1.7-5.4c0.1-0.2,0.1-0.2,0.2-0.5c0.6,1.9,1,3.8,1.6,5.6
			c0.2,0.9,0.2,0.8,1.1,0.9c0.4,0,0.6-0.2,0.6-0.5c0.4-1.4,0.8-2.7,1.3-4.2c0.3-1.2,0.7-2.4,1-3.7c-0.3,0-0.6,0-0.7,0
			c-0.4-0.1-0.6,0.1-0.7,0.5c-0.2,0.9-0.5,1.8-0.7,2.6c-0.3,1.2-0.6,2.4-1,3.7c-0.6-2.2-1.2-4.3-1.8-6.4c-0.1-0.3-0.2-0.4-0.6-0.4
			c-0.3,0.1-0.7-0.2-0.9,0.4c-0.2,0.7-0.4,1.4-0.6,2.2c-0.4,1.4-0.8,2.7-1.3,4.2c-0.6-2.3-1.3-4.6-1.8-6.7c-0.5,0-0.9,0-1.4,0
			c0.8,2.6,1.6,5.1,2.3,7.7C89.9,58.6,90,58.8,90.5,58.8z"/>
		<path class="st0" d="M68.6,50.4c-0.8-0.2-1.7-0.1-2.5,0.2c-1.2,0.3-1.3,0.5-1.2,1.7c0.8-0.2,1.5-0.6,2.3-0.7
			c1.4-0.2,2.2,0.7,1.9,2.1c-1,0.2-1.9,0.2-2.9,0.5c-1.6,0.3-2.5,1.6-2.2,3.1c0.2,1.4,1.7,2.1,3.3,1.8c0.8-0.2,1.3-0.6,1.8-1.3
			c0.1,0.4,0.1,1,0.2,1c0.2,0.2,0.7,0.1,1.3,0.1c-0.1-2.2-0.1-4.2-0.2-6.3C70.5,51.2,69.7,50.6,68.6,50.4z M67.7,57.7
			c-0.5,0.1-1,0-1.4-0.2c-0.6-0.2-0.7-0.7-0.7-1.3s0.2-1,0.8-1.2c1-0.2,2-0.4,3-0.6C69.6,56.2,68.9,57.4,67.7,57.7z"/>
		<path class="st0" d="M28.8,58.7c-0.1-2.2-0.1-4.4-0.2-6.6c-0.1-0.9-0.7-1.4-1.6-1.7c-1.3-0.3-2.5-0.2-3.6,0.5
			C23.2,51,23,51.2,23,51.3c-0.1,0.3,0,0.6,0,1c0.7-0.2,1.4-0.6,2.2-0.7c1.4-0.3,2.2,0.6,2.2,2.1c-1,0.2-1.9,0.2-2.9,0.5
			c-0.9,0.2-1.7,0.6-2,1.4c-0.4,1-0.4,1.8,0.3,2.7s1.8,1,2.8,0.8c0.8-0.2,1.4-0.6,1.9-1.2c0,0.4,0,0.7,0,1.1
			C27.9,58.7,28.2,58.7,28.8,58.7z M27.1,56.5c-0.4,1-1.4,1.4-2.3,1.2c-0.6-0.1-1.1-0.6-1.2-1.2c-0.1-0.9,0.2-1.4,1-1.5
			c0.9-0.2,1.8-0.4,2.8-0.6c0.1,0.1,0.2,0.1,0.2,0.2C27.3,55.3,27.3,56,27.1,56.5z"/>
		<path class="st0" d="M47.9,51.1c0,1.4,0,2.8,0,4.2c0,0.3-0.1,0.7-0.2,1c-0.3,1-1.2,1.6-2.2,1.5s-1.5-0.6-1.7-1.7
			c-0.1-0.7-0.1-1.4-0.1-2.2c0-1.1,0-2.2,0-3.4c-0.5,0-0.9,0-1.3,0c0,1.9-0.1,3.8,0,5.7c0.1,2.1,1.8,3.1,3.8,2.6
			c0.7-0.2,1.2-0.7,1.8-1.4c0,0.5,0,0.9,0,1.3c0.5,0,0.9,0,1.3,0c0-2.7,0-5.4,0-8.2c-0.4,0-0.8,0-1.3,0
			C47.9,50.7,47.9,50.9,47.9,51.1z"/>
		<path class="st0" d="M56.3,57.7C56.3,57.7,56.3,57.6,56.3,57.7c-1.7,0.3-2.2-0.1-2.2-1.8c0-1.2,0-2.4,0-3.6c0-0.2,0-0.5,0-0.8
			c0.7,0,1.4,0,2.1,0c0-0.4,0-0.7,0-1.1c-0.7,0-1.4,0-2.1,0c0-0.5,0-0.8,0-1.2s0-0.8,0-1.2c-0.3,0.1-0.6,0.2-0.8,0.2
			c-0.4,0.1-0.6,0.3-0.5,0.7c0,0.5,0,1,0,1.5c-0.5,0-1,0-1.4,0c0,0.4,0,0.7,0,1.1c0.5,0,0.9,0,1.4,0c0,0.3,0,0.5,0,0.6
			c0,1.4,0,3,0,4.4c0,1.5,0.8,2.2,2.3,2.2C56.2,58.9,56.4,58.8,56.3,57.7z"/>
		<path class="st0" d="M57.7,50.5c0,0.4,0,0.7,0,1.1c0.5,0,0.9,0,1.4,0c0,1.8,0,3.4,0,5.1c0,1.5,0.8,2.2,2.3,2.2
			c1.1,0,1.2-0.2,1-1.3c-1.5,0.5-2.1,0-2.1-1.5c0-0.6,0-1.4,0-2c0-0.8,0-1.7,0-2.6c0.7,0,1.4,0,2.1,0c0-0.4,0-0.7,0-1.1
			c-0.7,0-1.4,0-2.1,0c0-0.8,0-1.6,0-2.4c-0.2,0.1-0.5,0.2-0.7,0.2C59.1,48.3,59,48.5,59,49c0.1,0.5,0,1,0,1.4
			C58.6,50.5,58.1,50.5,57.7,50.5z"/>
		<path class="st0" d="M37.3,48.3c-0.4,0.1-0.6,0.3-0.6,0.7c0,0.5,0,1,0,1.5c-0.5,0-1,0-1.4,0c0,0.4,0,0.7,0,1.1c0.2,0,0.6,0,0.8,0
			c0.5-0.1,0.6,0.2,0.6,0.6c0,1.5,0,3.1,0,4.6c0,1.4,0.8,2.1,2.2,2.1c1.1,0,1.2-0.2,1.1-1.2c0,0,0-0.1-0.1-0.1
			c-0.2,0.1-0.3,0.1-0.5,0.2c-0.8,0.2-1.4-0.2-1.5-1c-0.1-1.8,0-3.4,0-5.2c0.7,0,1.4,0,2,0c0-0.4,0-0.7,0-1.1c-0.7,0-1.4,0-2,0
			c0-0.8,0-1.6,0-2.4C37.8,48.1,37.6,48.2,37.3,48.3z"/>
		<path class="st0" d="M105.7,58.7c0.4,0,0.8,0,1.3,0c0-4.1,0-8.1,0-12.2c-0.4,0-0.8,0-1.3,0C105.7,50.6,105.7,54.6,105.7,58.7z"/>
		<path class="st0" d="M101.1,58.7c0.4,0,0.8,0,1.3,0c0-2.7,0-5.4,0-8.2c-0.4,0-0.8,0-1.3,0C101.1,53.2,101.1,56,101.1,58.7z"/>
		<path class="st0" d="M31.9,58.7c0.4,0,0.8,0,1.3,0c0-2.7,0-5.4,0-8.2c-0.5,0-0.9,0-1.3,0C31.9,53.2,31.9,56,31.9,58.7z"/>
	</g>
	<path class="st0" d="M32.5,46.7c-0.6,0-0.9,0.3-0.9,0.9c0,0.5,0.4,0.8,0.9,0.8s0.9-0.4,0.9-0.9C33.3,47,33,46.7,32.5,46.7z"/>
	<path class="st0" d="M102.7,47.6c0-0.5-0.3-0.9-0.8-0.9s-0.9,0.3-1,0.8c0,0.5,0.4,0.9,0.9,0.9C102.2,48.4,102.6,48,102.7,47.6z"/>
</g>
</svg>
