<?xml version="1.0" encoding="utf-8"?>
<!-- Generator: Adobe Illustrator 21.0.0, SVG Export Plug-In . SVG Version: 6.00 Build 0)  -->
<svg version="1.1" id="Layer_1" xmlns="http://www.w3.org/2000/svg" xmlns:xlink="http://www.w3.org/1999/xlink" x="0px" y="0px" height="100px" width="100px"
	 viewBox="0 0 128.3 128.3" style="enable-background:new 0 0 128.3 128.3;" xml:space="preserve">
<style type="text/css">
	.st0{fill:#C4C4D6;}
	.st1{fill:#FFFFFF;}
</style>
<circle class="st0" cx="64.1" cy="64.1" r="63.9"/>
<g>
	<path class="st1" d="M51.3,34.5c3.6-3.6,7.8-5.3,12.8-5.3c5,0,9.2,1.8,12.8,5.3s5.3,7.8,5.3,12.8v7.5c5.2,5.1,7.8,11.2,7.8,18.5
		c0,7.1-2.5,13.2-7.6,18.3c-5.1,5.1-11.2,7.6-18.3,7.6s-13.2-2.5-18.3-7.6c-5.1-5.1-7.6-11.2-7.6-18.3c0-7.2,2.6-13.4,7.8-18.5v-7.5
		C46,42.3,47.8,38,51.3,34.5z M78.8,58.5c-4.1-4.1-8.9-6.1-14.7-6.1c-5.7,0-10.6,2-14.7,6.1s-6.1,8.9-6.1,14.7
		c0,5.7,2,10.6,6.1,14.7S58.4,94,64.1,94c5.7,0,10.6-2,14.7-6.1s6.1-8.9,6.1-14.7C84.9,67.5,82.8,62.6,78.8,58.5z M73.3,38.1
		c-2.5-2.5-5.6-3.8-9.2-3.8s-6.6,1.3-9.2,3.8c-2.5,2.5-3.8,5.6-3.8,9.2v3.6c4.1-2.4,8.4-3.6,13-3.6s8.9,1.2,13,3.6v-3.6
		C77.1,43.7,75.8,40.6,73.3,38.1z M60.5,69.6c1-1,2.2-1.5,3.6-1.5c1.4,0,2.6,0.5,3.6,1.5c1,1,1.5,2.2,1.5,3.6c0,1.9-0.9,3.5-2.6,4.5
		v8.4h-5.2v-8.4c-1.7-1.1-2.6-2.6-2.6-4.5C58.9,71.8,59.4,70.6,60.5,69.6z"/>
</g>
</svg>
