<?xml version="1.0" encoding="utf-8"?>
<!-- Generator: Adobe Illustrator 21.0.0, SVG Export Plug-In . SVG Version: 6.00 Build 0)  -->
<svg version="1.1" id="Layer_1" xmlns="http://www.w3.org/2000/svg" xmlns:xlink="http://www.w3.org/1999/xlink" x="0px" y="0px" width="250px"
	 viewBox="0 0 200 33.2" style="enable-background:new 0 0 200 33.2;" xml:space="preserve">
<style type="text/css">
	.st0{fill:#231F20;}
	.st1{fill:#0084FF;}
	.st2{fill:#EC1C24;}
</style>
<g>
	<g>
		<path class="st0" d="M81.1,14.5V0.8h8.8v1h-7.6v5.1h7.4v1h-7.4v6.5C82.2,14.5,81.1,14.5,81.1,14.5z"/>
		<path class="st0" d="M91.7,7.7c0-4.1,2.6-7.1,6.7-7.1s6.7,3.1,6.7,7.1s-2.7,7.1-6.7,7.1C94.3,14.8,91.7,11.7,91.7,7.7z M103.8,7.7
			c0-3.5-2.2-6.1-5.4-6.1c-3.3,0-5.4,2.5-5.4,6.1c0,3.5,2.2,6.1,5.4,6.1C101.7,13.7,103.8,11.1,103.8,7.7z"/>
		<path class="st0" d="M108,9.3V0.8h1.2v8.4c0,2.8,1.4,4.5,4.2,4.5c2.7,0,4.2-1.7,4.2-4.5V0.8h1.2v8.5c0,3.4-1.8,5.6-5.4,5.6
			C109.8,14.8,108,12.6,108,9.3z"/>
		<path class="st0" d="M130.2,14.5l-3.9-5.7h-3v5.7h-1.2V0.8h5.2c2.4,0,4.2,1.5,4.2,4.1c0,2.5-1.8,3.9-3.8,4l4,5.7L130.2,14.5
			L130.2,14.5z M130.2,4.8c0-1.8-1.2-2.9-3.1-2.9h-3.9v5.9h3.9C129,7.8,130.2,6.6,130.2,4.8z"/>
		<path class="st0" d="M137.9,14.5l-5.3-13.8h3.3l3.8,10.6l3.8-10.6h3.3l-5.3,13.8H137.9z"/>
		<path class="st0" d="M148.2,14.5V0.8h2.9v13.8L148.2,14.5L148.2,14.5z"/>
		<path class="st0" d="M152.9,12.6l1.6-2.3c1,1,2.5,1.9,4.4,1.9c1.6,0,2.4-0.7,2.4-1.5c0-2.4-7.9-0.7-7.9-5.9c0-2.3,2-4.2,5.2-4.2
			c2.2,0,4,0.7,5.4,1.9l-1.6,2.2c-1.1-1-2.6-1.5-4-1.5c-1.2,0-2,0.5-2,1.4c0,2.2,7.9,0.7,7.9,5.8c0,2.5-1.8,4.4-5.5,4.4
			C156,14.8,154.1,13.9,152.9,12.6z"/>
		<path class="st0" d="M166.1,14.5V0.8h2.9v13.8L166.1,14.5L166.1,14.5z"/>
		<path class="st0" d="M171.2,7.7c0-4.1,3-7.1,7.2-7.1c4.1,0,7.2,2.9,7.2,7.1c0,4.1-3,7.1-7.2,7.1C174.2,14.8,171.2,11.8,171.2,7.7z
			 M182.5,7.7c0-2.5-1.6-4.5-4.2-4.5c-2.5,0-4.2,2-4.2,4.5s1.6,4.5,4.2,4.5S182.5,10.2,182.5,7.7z"/>
		<path class="st0" d="M197.1,14.5l-6.6-8.9v8.9h-2.9V0.8h3l6.4,8.6V0.8h2.9v13.8L197.1,14.5L197.1,14.5z"/>
		<path class="st0" d="M92.6,32.7v-9.9l-3.9,9.9h-1.3l-3.9-9.9v9.9h-2.9V18.9h4.1l3.3,8.6l3.3-8.6h4.1v13.8
			C95.6,32.7,92.6,32.7,92.6,32.7z"/>
		<path class="st0" d="M98.3,32.7V18.9h9.7v2.5h-6.8v2.9h6.7v2.5h-6.7V30h6.8v2.5h-9.7V32.7z"/>
		<path class="st0" d="M110.3,32.7V18.9h5.4c4.3,0,7.3,2.7,7.3,6.9s-3,6.9-7.3,6.9H110.3L110.3,32.7z M120.1,25.8
			c0-2.4-1.5-4.3-4.3-4.3h-2.5v8.6h2.5C118.5,30.1,120.1,28.1,120.1,25.8z"/>
		<path class="st0" d="M125.2,32.7V18.9h2.9v13.8H125.2z"/>
		<path class="st0" d="M140.3,32.7l-0.8-2.4h-5.9l-0.8,2.4h-3.3l5.3-13.8h3.7l5.3,13.8H140.3z M136.5,21.8l-2.2,5.9h4.3L136.5,21.8z
			"/>
	</g>
	<g>
		<path class="st1" d="M67.6,0.5c-2.4,0-4.5,1.3-5.7,3.2L54,16.2L53.6,6.1c-0.1-4.1-3.2-5.6-5.9-5.6c-2.3,0-4.2,1.2-5.3,3.1
			L23.9,32.7h8.2L47.4,9.2c0,0,0.5,20.1,0.5,20.9c0,1.6,1.4,2.5,2.7,2.5h0.1c1,0,2-0.6,2.4-1.5l0,0L67,9.2v23.5h7.2V7.3
			C74.1,2.9,71.1,0.5,67.6,0.5z"/>
		<polygon class="st2" points="29.4,14.4 29.4,0.5 36.9,0.5 		"/>
		<path class="st1" d="M13.5,0.5L2,18.8c0,0-2.9,3.7-1.4,6.5C2,28,6,27.8,6,27.8h10.6v4.8H24V0.5H13.5z M16.5,21.4H7.1l9.3-14.5
			L16.5,21.4L16.5,21.4z"/>
	</g>
</g>
</svg>
