<?xml version="1.0" encoding="utf-8"?>
<!-- Generator: Adobe Illustrator 21.0.0, SVG Export Plug-In . SVG Version: 6.00 Build 0)  -->
<svg version="1.1" id="Layer_1" xmlns="http://www.w3.org/2000/svg" xmlns:xlink="http://www.w3.org/1999/xlink" x="0px" y="0px" 
	 viewBox="0 0 280 70" style="enable-background:new 0 0 280 70;" xml:space="preserve">
<style type="text/css">
	.st0{fill-rule:evenodd;clip-rule:evenodd;fill:#078046;}
	.st1{fill-rule:evenodd;clip-rule:evenodd;fill:none;stroke:#FFCC05;stroke-width:2;stroke-miterlimit:10;}
	.st2{fill-rule:evenodd;clip-rule:evenodd;fill:#FFCC05;}
	.st3{fill:#FFCC05;}
</style>
<g>
	<path class="st0" d="M35,4.8c0,0,18.4,3.8,30.3,21.8c0,0,1.7,21-11.8,35.4c0.1,0.1-16.1,7.2-37.2,0c0.1,0.1-12.5-15.6-11.6-35.3
		C4.6,26.7,15.2,10.6,35,4.8z"/>
	<path class="st1" d="M35,5.8c0,0,17.8,3.6,29.3,21.1c0,0,1.6,20.3-11.4,34.2c0.1,0.1-15.5,6.9-36,0C17,61.2,4.8,46,5.7,27
		C5.6,27,15.9,11.4,35,5.8z"/>
	<g>
		<g>
			<polygon class="st0" points="35.3,19.6 38.2,25.2 43.7,21.8 43.4,28.2 49.8,28 46.4,33.4 52.1,36.4 46.4,39.4 49.8,44.8 
				43.4,44.5 43.7,50.9 38.3,47.5 35.3,53.2 32.3,47.5 26.9,50.9 27.1,44.5 20.7,44.8 24.1,39.4 18.5,36.4 24.1,33.4 20.7,28 
				27.1,28.2 26.9,21.8 32.3,25.2 35.3,19.6 			"/>
			<path class="st2" d="M27.8,33.5c-0.1-0.1-0.2-0.3-0.2-0.4c-0.1-0.4-0.1-0.7-0.1-1.1l0.1,0.2C27.7,32.7,27.7,33,27.8,33.5
				L27.8,33.5z"/>
			<path class="st2" d="M41.8,35c0.5-0.3,0.9-0.5,1.4-0.8c0,0,0-0.1,0.1-0.1c0.1,0,0.2,0,0.3,0c-0.1,0.2-0.3,0.4-0.4,0.5
				c0,0,0-0.1,0-0.1c0,0-0.9,0.5-0.9,0.5C42.1,35,41.7,35,41.8,35L41.8,35z"/>
			<path class="st2" d="M28.8,32c0.1,0.1,0.1,0.1,0.2,0.2c0.2,0,0.3-0.1,0.5,0c0.1,0.2,0,0.4-0.2,0.5c0-0.3-0.1-0.5-0.4-0.4
				c-0.1,0.1-0.2,0.3,0.2,0.6c-0.1,0.2-0.2,0.4-0.1,0.7c0.1,0.2,0.1,0.4,0,0.7c-0.3,0.1-0.4-0.1-0.5-0.2c0.1,0.2,0.3,0.7,0.7,0.3
				c0.1-0.2,0.1-0.5,0-0.9c0-0.2,0-0.4,0.1-0.6c0.2,0,0.6-0.6,0.3-0.8c-0.2-0.1-0.3-0.1-0.5,0c0.1,0,0.1-0.1,0.2-0.1
				C29.1,32,29,32.1,28.8,32L28.8,32z M29.2,32.9c0-0.1,0-0.2,0-0.3C28.9,32.4,28.8,32.8,29.2,32.9L29.2,32.9z"/>
			<path class="st2" d="M29.7,32.1c0,0,0.1,0,0.1,0.1c0,0,0.1,0.2,0.2,0.3c0.1,0,0,0,0.1,0c0-0.1,0-0.1,0-0.1c0.1,0,0.1,0,0.1,0
				c0.1,0.1,0.1,0.2,0,0.3c-0.1,0-0.2,0-0.3-0.1C29.8,32.3,29.7,32.2,29.7,32.1L29.7,32.1z"/>
			<polygon class="st2" points="28.6,32 28.5,31.8 28.7,31.7 28.8,31.9 28.6,32 			"/>
			<polygon class="st2" points="28.5,32.3 28.4,32.1 28.6,32 28.7,32.2 28.5,32.3 			"/>
			<polygon class="st2" points="28.4,32.6 28.3,32.4 28.5,32.3 28.6,32.5 28.4,32.6 			"/>
			<polygon class="st2" points="27.4,33.8 27.3,33.7 27.5,33.5 27.6,33.7 27.4,33.8 			"/>
			<polygon class="st2" points="27.4,34.1 27.3,34 27.5,33.8 27.6,34 27.4,34.1 			"/>
			<path class="st2" d="M27.2,34.4c0,0,0.1,0,0.1,0c0,0,0.2,0.1,0.2,0.1c0,0,0,0,0-0.1c-0.1,0-0.1-0.1-0.1-0.1c0,0,0.1,0,0.1,0
				c0.1,0.1,0.1,0.2,0.1,0.2c-0.1,0.1-0.1,0.1-0.2,0.1C27.4,34.6,27.3,34.5,27.2,34.4L27.2,34.4z"/>
			<path class="st2" d="M28.5,35.1c-0.5,0-1,0-1.5,0c0,0-0.1,0.1-0.1,0.1c-0.1,0-0.2-0.1-0.2-0.1c0.2-0.1,0.4-0.2,0.5-0.3
				c0,0-0.1,0.1-0.1,0.1c0,0,1,0,1,0C28.2,34.9,28.6,35.1,28.5,35.1L28.5,35.1z"/>
			<path class="st2" d="M27.1,34.9c0.1-0.1,0.1-0.4,0-0.5c-0.1-0.1-0.2-0.1-0.3,0.1c0,0,0,0.1,0,0.2c0,0,0.1,0,0.1,0
				C27,34.4,27.2,34.6,27.1,34.9C27.1,34.9,27.1,34.9,27.1,34.9L27.1,34.9z"/>
			<path class="st2" d="M28.2,32.7c0,0-0.1-0.1-0.1-0.1c0.2,0,0.3,0,0.4,0.1c0,0.1,0,0.2-0.1,0.2c0,0.1,0.1,0.1,0,0.2
				c-0.1,0.1-0.1,0.1-0.2,0c0,0,0,0.1,0,0.1c0,0-0.1-0.1-0.1-0.1C28,33.1,28,33,28,33c0,0,0.1,0,0.1,0c0,0,0.1,0,0.1,0.1
				c0,0,0,0,0.1,0c0-0.1-0.1-0.1-0.2-0.1c0-0.1,0-0.1,0-0.1c0.1,0,0.2,0,0.3,0C28.3,32.7,28.2,32.7,28.2,32.7L28.2,32.7z"/>
			<path class="st2" d="M28.2,31.1c0,0.1-0.1,0.2-0.2,0.4c0,0.4,0,0.7,0,1l0.1-0.2C28.2,31.9,28.2,31.6,28.2,31.1L28.2,31.1z"/>
			<path class="st2" d="M31.3,29.2c-0.1,0.9,0.9,0.7,0.3,0.1C31.8,30,31.3,29.6,31.3,29.2L31.3,29.2z"/>
			<path class="st2" d="M36.7,29.8c0-0.5-0.1-1-0.1-1.5c0,0-0.1-0.1-0.1-0.1c0-0.1,0.1-0.2,0.1-0.2c0.1,0.2,0.2,0.4,0.3,0.5
				c0,0-0.1-0.1-0.1-0.1c0,0,0.1,1,0.1,1C36.9,29.5,36.7,29.8,36.7,29.8L36.7,29.8z"/>
			<path class="st2" d="M37.3,28.2c-0.8,0.6-0.1,1.7,0.1,0.6C37,29.5,37.1,28.4,37.3,28.2L37.3,28.2z"/>
			<path class="st2" d="M42.1,34.4c-1.2-0.2-1,1,0.2,1.2c0.1,0,0.2,0,0.3-0.1c0.1-0.1,0.2-0.2,0.2-0.3c0,0,0-0.1,0-0.2
				c-0.1-0.1-0.3-0.1-0.3-0.1c-0.1,0.1-0.2,0.2,0,0.5c0,0,0,0-0.1,0C41.6,35.1,41.2,34.6,42.1,34.4L42.1,34.4z M42.5,35.3
				c0.1,0,0.1-0.1,0.1-0.2c0-0.1-0.1-0.1-0.2-0.1C42.4,35.1,42.5,35.3,42.5,35.3L42.5,35.3z"/>
			<path class="st2" d="M43,34.7c0,0,0.2,0,0.2,0l0.7,0.7l-0.2,0L43,34.7L43,34.7z"/>
			<path class="st2" d="M43.4,35.1c-0.4-0.2-0.7,0.4-0.1,0.3C42.9,35.2,43.2,35.1,43.4,35.1L43.4,35.1z"/>
			<path class="st2" d="M41.7,34c-0.7-0.5-1.1,0.5-0.3,0.3C40.9,34.1,41.5,34,41.7,34L41.7,34z"/>
			<polygon class="st2" points="42.3,33.1 42.4,33.1 42.4,33.3 42.2,33.3 42.3,33.1 			"/>
			<polygon class="st2" points="42.5,32.9 42.7,33 42.6,33.2 42.4,33.1 42.5,32.9 			"/>
			<polygon class="st2" points="41.6,32.1 41.9,32.2 43.2,32.9 42.9,32.9 41.6,32.1 			"/>
			<path class="st2" d="M40,32.3c0.1,0.1,0.2,0.1,0.3,0.2c0.4,0.4,0.7,0.8,1,1.2c-0.1,0-0.2-0.1-0.3-0.1
				C40.7,33.1,40.4,32.7,40,32.3L40,32.3z"/>
			<path class="st2" d="M42.9,33.3c0.1,0.2,0.3,0.3,0.4,0.3c0.1,0,0.1-0.2-0.1-0.4c0,0-0.1,0-0.2-0.1c0,0-0.1,0.1-0.1,0.1
				C43.4,33.5,43.2,33.5,42.9,33.3C42.9,33.2,42.9,33.3,42.9,33.3L42.9,33.3z"/>
			<path class="st2" d="M43.3,33.9c-0.4,0.1-0.6-0.3-0.8-0.4c-0.2,0-0.3,0.1-0.4,0.3c-0.3-0.1-0.5-0.3-0.1-0.4c0,0,0.1-0.1,0.1-0.1
				c-0.2,0.1-0.5,0-0.7-0.3c0,0,0,0,0-0.1c0.1,0.1,0.2,0.1,0.3,0.1c0.2,0,0.4-0.1,0.2-0.4c-0.1-0.2-0.5-0.3-0.9-0.3
				c0-0.1,0-0.2,0.1-0.2c0.1-0.2,0.1-0.4,0-0.4c-0.2-0.1-0.4,0-0.5,0.2c-0.1-0.1-0.3-0.1-0.3-0.2c0.2,0,0.4-0.2,0.3-0.4
				c-0.1-0.1-0.2-0.2-0.4-0.2c-0.2,0-0.4,0.1-0.2,0.4c-1-0.2-0.9-0.7-0.3-0.8c-0.6-0.1-0.9,0.3-0.6,0.7c0.3,0.3,0.6,0.3,0.9,0.4
				c0.1,0.2,0.3,0.2,0.4,0.3c0,0,0.1,0.1,0.1,0.2c0.1,0,0.1,0,0.2,0c-0.1-0.1-0.1-0.3-0.1-0.4c0.1-0.2,0.1-0.1,0.2,0
				c0,0.2-0.1,0.3-0.1,0.5c-0.1,0-0.1,0.1-0.2,0.1c0,0,0,0,0,0c0,0,0.2-0.1,0.2,0c0.1,0.2,0.2,0.4,0.4,0.6c0,0,0,0,0,0
				c0.1,0.1,0.2,0.2,0.4,0.3c-0.1,0.1-0.2,0.2,0.2,0.5c0.2,0.1,0.4,0.3,0.7,0.4c0.1,0,0.2-0.1,0.2-0.1c-0.2-0.1-0.4-0.2-0.4-0.4
				c0-0.1,0.1-0.2,0.3,0c0.1,0.1,0.3,0.3,0.4,0.2C43.1,34,43.2,34,43.3,33.9L43.3,33.9z M40.3,31.4c0.2,0,0.2,0.2,0,0.3
				c0,0-0.1,0-0.1,0c0,0-0.1-0.1-0.1-0.1C40.1,31.5,40.1,31.4,40.3,31.4L40.3,31.4z M41.1,32.6c0,0.1,0.1,0.2,0.2,0.4
				c0.3,0.2,0.5,0.2,0.5,0C41.9,32.8,41.4,32.6,41.1,32.6L41.1,32.6z"/>
			<path class="st2" d="M39.4,31.3c0.4-0.4,0.8-0.8,1.1-1.2c0,0,0-0.1,0-0.1c0.1,0,0.2-0.1,0.3-0.1c-0.1,0.2-0.2,0.4-0.3,0.6
				c0-0.1,0-0.1,0-0.1c0,0-0.7,0.8-0.8,0.8C39.7,31.2,39.4,31.3,39.4,31.3L39.4,31.3z"/>
			<path class="st2" d="M40.5,29.6c-0.8-0.1-0.8,1-0.2,0.4C39.7,30,40.3,29.7,40.5,29.6L40.5,29.6z"/>
			<polygon class="st2" points="38.1,29.3 38.5,29.2 40.1,29 39.8,29.2 38.1,29.3 			"/>
			<path class="st2" d="M37.6,30.6c0.1,0,0.2,0,0.3,0c0.4,0.1,0.7,0.2,1.1,0.3L38.8,31C38.4,30.8,38,30.7,37.6,30.6L37.6,30.6z"/>
			<path class="st2" d="M40.9,30.5c0-0.1,0.1-0.2,0.2-0.2c0.2,0,0.3,0.1,0.4,0.3c0.1,0.2-0.4,0.2-0.8,0.1c0,0,0,0,0-0.1
				c0.3,0,0.6,0.1,0.5,0C41.1,30.5,41,30.5,40.9,30.5L40.9,30.5z"/>
			<path class="st2" d="M41.1,30.8c0.2,0.2,0.4,0.4,0.7,0.5c-0.1-0.2,0-0.2,0.1-0.3c0.2,0,0.3,0.1,0.4,0.3c-0.1,0.1-0.1,0.2-0.2,0.2
				c0,0,0,0.1,0,0.1c0,0-0.1,0-0.2,0c0,0,0-0.1,0-0.1C41.6,31.4,41.3,31.2,41.1,30.8L41.1,30.8z"/>
			<path class="st2" d="M41.1,31.3C41.1,31.3,41.1,31.3,41.1,31.3c0.1-0.1,0.1-0.1,0.2,0c0,0.1,0,0.1,0,0.2c-0.1,0-0.1,0.1-0.1,0.1
				c-0.1,0-0.1-0.1-0.2-0.1c-0.1,0-0.2,0.2-0.3,0.3c-0.1,0-0.1,0-0.1,0C40.8,31.6,41,31.2,41.1,31.3L41.1,31.3z"/>
			<path class="st2" d="M36.6,29.1c-0.4,0.8,0.4,1,0.9,0.5c0.1-0.4,0.2-0.9,0.2-1.3c0.1,0,0.1-0.1,0.2-0.1c-0.1,0.5-0.2,1-0.2,1.4
				c0,0.3,0.1,0.3,0.5,0.1c-0.1,0.3,0.2,0.5,0.8,0.5c-0.1,0-0.4-0.3-0.5-0.3c0-0.1,0.1-0.1,0.1-0.2c0.6,0.2,0.9-0.2,1.2-0.1
				c0,0.1,0,0.3,0,0.4c0,0,0,0-0.1,0c-0.1-0.1,0-0.2,0-0.2c-0.2,0-0.5,0.2-0.8,0.1c0.2,0.2,0.7,0.2,0.8,0.4c0,0.1-0.1,0.1-0.1,0.2
				c-0.1-0.1-0.3-0.2-0.8-0.1c-0.4,0-0.7-0.1-0.7-0.4c-0.3,0.2-0.4,0-0.5-0.2c-0.1,0.2-0.3,0.3-0.5,0.3c-0.4,0-0.6-0.1-0.7-0.3
				C36.3,29.6,36.3,29.3,36.6,29.1L36.6,29.1z"/>
			<polygon class="st2" points="37.5,30.3 37.7,30.2 37.8,30.4 37.6,30.5 37.5,30.3 			"/>
			<polygon class="st2" points="38.9,30.5 39.1,30.5 39.2,30.7 39,30.8 38.9,30.5 			"/>
			<path class="st2" d="M38.2,28.8c0-0.1,0-0.2,0.1-0.2c0.2-0.1,0.3-0.1,0.5,0c0.2,0.1-0.3,0.4-0.6,0.5c0,0,0,0,0,0
				c0.3-0.1,0.6-0.3,0.4-0.3C38.4,28.7,38.2,28.7,38.2,28.8L38.2,28.8z"/>
			<path class="st2" d="M38,29c0,0,0,0.1,0,0.1c0,0-0.1,0.1-0.1,0.2c0,0,0,0,0,0c0,0,0.1-0.1,0.1,0c0,0,0,0.1,0,0.1
				c-0.1,0.1-0.1,0.1-0.2,0c-0.1-0.1-0.1-0.1,0-0.2C37.9,29.2,38,29.1,38,29L38,29z"/>
			<path class="st2" d="M35.9,29.6C35.9,29.6,36,29.7,35.9,29.6C36,29.8,36,29.9,36,30c0,0,0,0,0.1,0c0-0.1,0-0.1,0.1-0.1
				c0,0,0.1,0,0.1,0.1c0,0.1-0.1,0.2-0.1,0.2c-0.1,0-0.2,0-0.2-0.2C35.9,29.9,35.9,29.7,35.9,29.6L35.9,29.6z"/>
			<path class="st2" d="M34.5,28.3c0.1-0.1,0.2-0.1,0.3-0.2c0.4-0.2,0.7-0.3,1.1-0.3L35.7,28C35.3,28,34.9,28.2,34.5,28.3L34.5,28.3
				z"/>
			<path class="st2" d="M35.1,27.7c0,0,0-0.1,0.1-0.1c0.1,0.1,0.2,0.2,0.1,0.3c0,0,0,0-0.1,0C35.3,27.9,35.1,27.7,35.1,27.7
				L35.1,27.7z"/>
			<path class="st2" d="M36,28.2c-0.1,0-0.1,0-0.2-0.1c0-0.1,0-0.1,0.1-0.1c0.1,0,0.1,0.1,0.2,0.2c0-0.1,0.1-0.3,0.2-0.3
				c0.1,0,0.1,0,0.1,0.2c0,0,0,0,0,0c-0.2,0-0.2,0.2-0.2,0.3c0,0-0.1,0-0.1,0C36.2,28.3,36.1,28.3,36,28.2L36,28.2z"/>
			<path class="st2" d="M35.4,28.2c0-0.1,0.1-0.1,0.1-0.2c0.1,0.1,0.1,0.3,0,0.4c-0.1,0-0.1,0-0.2-0.1c0,0-0.1,0.1-0.1,0.1
				c-0.1,0-0.1-0.1-0.1-0.2c0,0,0,0-0.1,0.1c0-0.1,0-0.1,0-0.2c0-0.1,0.1-0.1,0.1-0.1c0,0,0,0.1,0,0.1c0,0,0,0.1,0,0.1c0,0,0,0,0,0
				c0.1,0,0.1-0.1,0-0.2c0,0,0.1-0.1,0.1-0.1c0,0.1,0,0.2,0.1,0.3C35.4,28.3,35.4,28.3,35.4,28.2L35.4,28.2z"/>
			<path class="st2" d="M36,28.8c-0.1-0.1-0.2-0.3-0.3-0.4c0,0.1-0.1,0.2-0.1,0.2c0.1,0.4,0.4,0.8,0.1,0.9c-0.3,0.1-0.4-0.4-0.5-0.8
				c0-0.1-0.1-0.1-0.1-0.2c0,0.1-0.1,0.2-0.1,0.2c0,0.2,0.1,0.4,0.1,0.6c-0.2,0.6-0.6,0.3-0.6,0.1c-0.1,0.1,0-0.5,0.1-0.8
				c-0.5,0-0.4,1-0.7,0.9c-0.2,0-0.2-0.3-0.2-0.6c0,0,0,0,0,0c0,0.4-0.1,0.8,0.2,0.9c0.1,0,0.1,0,0.2-0.1c0.2-0.1,0.1-0.6,0.3-0.8
				c-0.2,0.8,0,0.9,0.2,0.9c0.3,0,0.4-0.2,0.5-0.4c0.1,0.3,0.3,0.4,0.5,0.3c0.1-0.1,0.2-0.2,0.2-0.3C36,29.2,36,29,36,28.8
				C36,28.8,36,28.8,36,28.8C36,28.9,36,28.8,36,28.8L36,28.8z"/>
			<path class="st2" d="M33.6,30.4c0.1-0.1,0.1-0.1,0.2-0.2c0.3-0.2,0.5-0.4,0.8-0.5l-0.1,0.2C34.2,30,33.9,30.2,33.6,30.4
				L33.6,30.4z"/>
			<path class="st2" d="M33.7,28.5c-0.1,0-0.1,0-0.2-0.1c0-0.1,0-0.1,0.1-0.1c0.1,0,0.1,0.1,0.2,0.2c0-0.1,0.1-0.3,0.2-0.3
				c0.1,0,0.1,0,0.1,0.2c0,0,0,0,0,0c-0.2,0-0.2,0.2-0.2,0.3c0,0-0.1,0-0.1,0C33.9,28.6,33.8,28.6,33.7,28.5L33.7,28.5z"/>
			<path class="st2" d="M35,30.1c0.1,0.1,0.4,0,0.4-0.1c0-0.1-0.1-0.2-0.3-0.1c0,0-0.1,0-0.1,0.1c0,0,0,0.1,0,0.1
				C35.4,29.9,35.3,30.1,35,30.1C35,30.1,35,30.1,35,30.1L35,30.1z"/>
			<path class="st2" d="M34.5,28.5C34.5,28.6,34.5,28.5,34.5,28.5c0.1,0,0.1-0.1,0.1-0.1c0,0-0.1-0.1-0.1-0.1c0,0-0.1,0-0.1,0.1
				c0,0,0.1,0.1,0,0.1c0,0.1-0.2,0.1-0.3,0.1c0,0,0,0.1,0,0.1C34.2,28.7,34.5,28.7,34.5,28.5L34.5,28.5z"/>
			<path class="st2" d="M32.4,29.2c0.1-0.1,0.2-0.3,0.2-0.4c0.4-0.4,0.9-0.6,1.2-0.8l-0.1,0.2C33.3,28.5,32.8,28.8,32.4,29.2
				L32.4,29.2z"/>
			<polygon class="st2" points="33.5,29.7 33.6,29.5 33.8,29.7 33.7,29.8 33.5,29.7 			"/>
			<polygon class="st2" points="33.1,30.4 33.1,30.2 33.3,30.3 33.3,30.5 33.1,30.4 			"/>
			<polygon class="st2" points="32.8,30.6 32.9,30.4 33.1,30.4 33,30.6 32.8,30.6 			"/>
			<path class="st2" d="M30.8,30c0-0.1,0.1-0.2,0.1-0.4c0.2-0.4,0.5-0.7,0.8-1l-0.1,0.2C31.3,29.2,31.1,29.5,30.8,30L30.8,30z"/>
			<path class="st2" d="M30.7,29.8c0-0.1,0.1-0.2,0.1-0.4c0.2-0.4,0.5-0.7,0.8-1l-0.1,0.2C31.2,29,31,29.4,30.7,29.8L30.7,29.8z"/>
			<path class="st2" d="M31.9,29.2c-0.1-0.1-0.1-0.1-0.1-0.3c0.1-0.2,0.2-0.3,0.4-0.3c0.2,0,0,0.5-0.2,0.8c0,0,0,0-0.1,0
				c0.2-0.3,0.3-0.6,0.2-0.5C32,28.9,31.9,29,31.9,29.2L31.9,29.2z"/>
			<path class="st2" d="M32.7,28.7c0,0-0.1-0.1,0-0.1c0,0,0.1-0.2,0.1-0.3c0-0.1,0,0-0.1,0c0,0.1-0.1,0.1-0.1,0.1c0,0-0.1-0.1,0-0.2
				c0.1-0.1,0.1-0.2,0.2-0.1c0.1,0.1,0.1,0.2,0.1,0.3C32.8,28.4,32.7,28.6,32.7,28.7L32.7,28.7z"/>
			<path class="st2" d="M30.6,29.7c0,0-0.1-0.1,0-0.1c0,0,0.1-0.2,0.1-0.3c0-0.1,0,0-0.1,0c0,0.1-0.1,0.1-0.1,0.1c0,0-0.1-0.1,0-0.2
				c0.1-0.1,0.1-0.2,0.2-0.1c0.1,0.1,0.1,0.2,0.1,0.3C30.7,29.4,30.6,29.6,30.6,29.7L30.6,29.7z"/>
			<path class="st2" d="M32.2,30.4c0,0,0.1,0.1,0,0.1c0,0-0.1,0.2,0,0.2c0,0,0,0,0.1,0c0-0.1,0-0.1,0.1-0.1c0,0,0.1,0.1,0.1,0.1
				c0,0.1-0.1,0.1-0.2,0.1c-0.1,0-0.1-0.1-0.1-0.2C32.1,30.6,32.1,30.5,32.2,30.4L32.2,30.4z"/>
			<path class="st2" d="M30.9,30.9c0-0.1,0.2,0.4,0.3,0.4c0,0,0.1,0,0.1,0c0-0.1,0-0.1,0-0.1c0.1,0,0.1,0,0.1,0.1
				c0,0.1,0,0.2-0.1,0.3c-0.1,0.1-0.2,0-0.3-0.1C31,31.2,30.9,31,30.9,30.9L30.9,30.9z"/>
			<path class="st2" d="M30.1,30.2c0-0.1,0-0.1-0.1-0.2c0.2,0,0.3,0.1,0.3,0.3c0,0.1-0.1,0.1-0.2,0.1c0,0.1,0,0.2,0,0.2
				c-0.1,0-0.1,0-0.2-0.1c0,0,0,0.1,0,0.1c0-0.1-0.1-0.1-0.1-0.1c0-0.1,0-0.2,0-0.2c0,0,0.1,0.1,0.1,0.1c0,0,0,0.1,0,0.1
				c0,0,0,0,0.1,0c0.1-0.1,0-0.2-0.1-0.2c0-0.1,0-0.1,0-0.1c0.1,0.1,0.2,0.2,0.3,0.1C30.2,30.2,30.2,30.2,30.1,30.2L30.1,30.2z"/>
			<path class="st2" d="M29.7,30.3c0,0.1,0-0.2,0-0.3c0.1-0.4,0.3-0.6,0.5-0.9l0,0.3C30,29.7,29.8,30,29.7,30.3L29.7,30.3z"/>
			<path class="st2" d="M29,30.7c-0.1,0.9,0.9,0.7,0.3,0.1C29.5,31.5,29,31.1,29,30.7L29,30.7z"/>
			<path class="st2" d="M28.7,31.6c0-0.1,0-0.3,0-0.4c0.1-0.4,0.2-0.7,0.4-1.1l0,0.2C28.9,30.7,28.8,31.1,28.7,31.6L28.7,31.6z"/>
			<path class="st2" d="M30.2,29.5l0.1,0.3c0.3,0,1,1.3,1.4,1.2c0.2,0,0.4-0.3,0.5-0.6c0.3,0,0.5,0,0.5-0.3c0.2,0.2,0.3,0.1,0.5-0.3
				c0.1,0,0.1,0.1,0.2,0.2c0-0.1,0-0.1,0.1-0.2c-0.1-0.1-0.1-0.1-0.2-0.1c0.1-0.2,0.3-0.4,0.5-0.6c0-0.1,0-0.1,0-0.2
				c-0.6,0.1-1,0.2-1.2,0.4c-0.1,0.3,0.1,0.4,0.4,0.5c-0.2,0.2-0.3,0.4-0.4,0c0,0.4-0.2,0.5-0.4,0.5c0.1-0.1,0.1-0.2,0.1-0.3
				c0-0.1,0-0.1,0-0.2c-0.3,0.1-0.5,0.3-0.7,0.5c0,0.1,0,0.2,0,0.2c0.2-0.1,0.3-0.2,0.3-0.1c-0.1,0.2-0.1,0.3-0.3,0.4
				c-0.1,0-0.4-0.1-0.7-0.7C30.7,29.9,30.1,29.2,30.2,29.5L30.2,29.5z M33.1,29.6c-0.2-0.1-0.4-0.2-0.3-0.3c0.1-0.1,0.9-0.3,0.8-0.2
				C33.4,29.1,33,29.6,33.1,29.6L33.1,29.6z M31.8,30.3c0.1-0.1,0.2-0.2,0.3-0.2c0,0.1-0.1,0.1-0.1,0.2
				C31.9,30.2,31.8,30.2,31.8,30.3L31.8,30.3z"/>
			<path class="st2" d="M29.9,31.6c0.3,1.1,1.2,0.5,0.9-0.6c0-0.1-0.1-0.2-0.2-0.2c-0.1-0.1-0.2-0.1-0.3-0.1c0,0-0.1,0-0.2,0.1
				c-0.1,0.1,0,0.3,0.1,0.3c0.1,0.1,0.3,0.1,0.4-0.1c0,0,0,0,0.1,0.1C30.8,31.9,30.4,32.4,29.9,31.6L29.9,31.6z M30.5,31
				c-0.1-0.1-0.1-0.1-0.2,0c-0.1,0-0.1,0.1,0,0.2C30.4,31.2,30.5,31.1,30.5,31L30.5,31z"/>
			<path class="st2" d="M29.3,29.9c0.1,0.1,0.2,0.2,0.3,0.2c0.1,0.4,0.2,0.8,0.4,1.2c0.5,0.1,0.5,0.3,0.3,0.5
				c-0.2,0.1-0.3-0.1-0.5-0.3c-0.4,0-0.8,0.1-1.2,0.1c-0.1,0-0.1-0.1-0.2-0.1c0.2-0.1,0.3-0.1,0.5-0.1c0,0-0.1,0-0.1,0.1
				c0.4-0.1,0.7-0.1,1-0.1C29.7,30.9,29.5,30.4,29.3,29.9L29.3,29.9z M30.1,31.5c0.1,0,0.3,0,0.3,0.2c0,0,0,0.1-0.1,0
				C30.1,31.7,30,31.5,30.1,31.5L30.1,31.5z"/>
			<path class="st2" d="M29.7,33.6c0,0-0.2-0.3-0.3-0.3c0,0,0,0-0.1,0c0,0,0,0.1,0,0.1c0,0-0.1,0-0.1,0c0-0.1,0-0.2,0-0.2
				c0.1-0.1,0.2-0.1,0.2,0C29.6,33.3,29.7,33.5,29.7,33.6L29.7,33.6z"/>
			<path class="st2" d="M27,33c0,0,0.2,0.1,0.3,0.1c0,0,0,0,0,0c0,0,0-0.1,0-0.1c0,0,0.1,0,0.1,0c0.1,0.1,0.1,0.1,0,0.2
				c0,0.1-0.1,0.1-0.2,0.1C27.2,33.1,27.1,33.1,27,33L27,33z"/>
			<path class="st2" d="M27.8,35.2c0.6,1,1.3,0.1,0.7-0.9c0,0-0.1-0.1-0.1-0.1c0.1-0.3,0.2-0.7-0.3-0.8c-0.1,0-0.2,0-0.3,0.1
				c0,0-0.1,0.1-0.1,0.2c0,0.1,0.1,0.2,0.2,0.3c0.1,0,0.3,0,0.3-0.3c0,0,0.2,0,0.1,0.5c-0.1,0-0.2,0-0.3,0c0,0-0.1,0.1-0.1,0.1
				c0,0.1,0.1,0.2,0.2,0.3c0.1,0.1,0.3,0,0.3-0.3c0,0,0,0,0.1,0C28.7,35.1,28.5,35.8,27.8,35.2L27.8,35.2z M28.1,33.6
				c-0.1,0-0.1,0-0.2,0.1c0,0.1,0,0.1,0,0.2C28,33.9,28.1,33.7,28.1,33.6L28.1,33.6z M28.3,34.4c-0.1,0-0.1,0-0.2,0.1
				c0,0.1,0,0.1,0,0.2C28.2,34.6,28.3,34.4,28.3,34.4L28.3,34.4z"/>
			<path class="st2" d="M27.2,34.2c0,0-0.1-0.1-0.1-0.2c0,0,0-0.2,0-0.4c0,0-0.1,0-0.1,0c0,0,0,0.1-0.1,0.1c0,0-0.1-0.1-0.1-0.1
				c0-0.2,0-0.3,0.2-0.3c0.1,0,0.1,0.1,0.2,0.2c0,0,0,0,0.1,0c0,0,0.1,0.1,0.1,0.2c0,0-0.1,0-0.1,0C27.2,33.9,27.2,34.1,27.2,34.2
				L27.2,34.2z"/>
			<path class="st2" d="M40.5,41.4c0.1,0.1,0.1,0.1,0.2,0.2c0.2-0.1,0.5-0.2,0.7-0.1c0.1,0.5-0.1,0.6-0.5,0.5
				c-0.4-0.2-0.8-0.4-1.2-0.4c0,0.1,0.1,0.2,0.2,0.3c0.3,0,0.5,0.1,0.8,0.2c0.1,0.2,0.1,0.6,0,0.8c-0.2,0.5-0.5,0.6-0.8-0.3
				c0,0,0,0,0,0.1c0.1,0.4,0.3,0.9,0.6,0.9c0.1,0,0.2-0.1,0.3-0.2c0.2-0.3,0.2-0.7,0.1-1.1c0.2,0.1,0.5,0.1,0.6,0
				c0.2-0.2,0.3-0.7-0.1-0.8c-0.2-0.1-0.4,0-0.5,0c0,0,0-0.1,0-0.1C40.8,41.3,40.6,41.3,40.5,41.4L40.5,41.4z"/>
			<polygon class="st2" points="41.7,42.1 41.9,42 42,42.2 41.8,42.3 41.7,42.1 			"/>
			<polygon class="st2" points="41.8,41.7 42,41.6 42.1,41.8 41.9,41.9 41.8,41.7 			"/>
			<path class="st2" d="M41.2,42.6c-0.2-0.4,0.4-0.6,0.2,0.3C41.3,42.6,41.2,42.2,41.2,42.6C41.2,42.6,41.2,42.6,41.2,42.6
				L41.2,42.6z"/>
			<path class="st2" d="M40.4,42.4c0.3,0.5-0.4,0.6-0.3-0.4C40.1,42.4,40.4,42.8,40.4,42.4C40.4,42.4,40.3,42.4,40.4,42.4L40.4,42.4
				z"/>
			<path class="st2" d="M40.7,40.9c0.3,0.5-0.4,0.6-0.3-0.4C40.4,40.8,40.6,41.3,40.7,40.9C40.7,40.9,40.6,40.9,40.7,40.9L40.7,40.9
				z"/>
			<polygon class="st2" points="40,40.3 40.2,40.5 40.2,41.6 40,41.5 40,40.3 			"/>
			<path class="st2" d="M39.7,41.6c0-0.1,0-0.1,0-0.2c0,0-0.1,0.1-0.1,0.1c-0.1-0.2-0.2-0.2-0.3-0.1c-0.1,0.3,0,0.3,0.1,0.4
				c0,0,0.1,0,0.2-0.1c0.1,0.3,0,0.6,0,1c0,0.3,0.1-0.3,0.1-0.5C39.7,41.9,39.6,41.6,39.7,41.6C39.6,41.6,39.6,41.6,39.7,41.6
				L39.7,41.6z M39.4,41.5C39.4,41.5,39.5,41.5,39.4,41.5c0.1,0.1,0,0.1,0,0.1C39.4,41.6,39.3,41.6,39.4,41.5
				C39.3,41.5,39.4,41.5,39.4,41.5L39.4,41.5z"/>
			<path class="st2" d="M38.7,42c0,0.1,0,0.2,0,0.3c0.1,0,0.1,0.1,0.2,0.1c0.4,0.5,0.7,1,1,1.5c0.1-0.1,0-0.3-0.1-0.5
				c-0.2-0.3-0.4-0.6-0.6-1c0.1,0,0.1,0,0.2,0c0,0,0-0.1,0-0.1C39.3,42.3,38.7,41.9,38.7,42L38.7,42z"/>
			<path class="st2" d="M38.7,42.7c0,0,0,0.2,0,0.3c0.2,0.2,0.4,0.4,0.5,0.6c0.1,0.1-0.2,0.4-0.4,0.2c-0.1-0.1-0.2-0.3-0.3-0.5
				c0-0.1-0.1-0.1-0.1-0.2c-0.1-0.1-0.2-0.1-0.3-0.2c0,0.1,0,0.2,0,0.2c0.2,0.2,0.3,0.4,0.3,0.6c-0.2,0.6-0.5,0.5-0.6,0.3
				c-0.1-0.1,0-0.5-0.2-0.8c-0.4,0.1-0.3,0.7-0.2,1c0,0.1,0,0.2-0.1,0.2c-0.2,0-0.4-0.6-0.4-0.5c0,0,0,0.1,0,0.2
				c0.2,0.4,0.4,0.7,0.6,0.6c0.1-0.1,0.2-0.2,0.1-0.6c-0.1-0.2-0.1-0.4,0-0.5c0,0.7,0.3,0.9,0.6,0.8c0.2-0.1,0.3-0.3,0.3-0.6
				c0.2,0.1,0.3,0.3,0.6,0.1c0.2-0.1,0.2-0.3,0.2-0.5c-0.1-0.2-0.2-0.3-0.4-0.4c0,0,0.1,0,0.1,0c0,0,0-0.1,0-0.1
				C39,43.1,38.6,42.7,38.7,42.7L38.7,42.7z"/>
			<path class="st2" d="M37,44.8c0.1,0.4-0.6,0.4-0.1-0.3C36.8,44.7,36.8,45.1,37,44.8C37,44.8,36.9,44.8,37,44.8L37,44.8z"/>
			<polygon class="st2" points="37.4,45 37.7,44.5 37.8,44.6 37.4,45.1 37.4,45 			"/>
			<path class="st2" d="M38.1,42.5l0,0.2c0.1,0.1,0.1,0.2,0.1,0.2c-0.1,0-0.2-0.1-0.2-0.3c0,0,0,0.1,0,0.1c0,0.1,0.1,0.1,0.1,0.2
				c0,0,0,0-0.1,0c-0.1,0-0.1-0.2-0.1-0.3c-0.1,0.1-0.1,0.2-0.1,0.3c0,0,0.1-0.1,0.1-0.1c0.1,0.1,0.1,0.2,0.2,0.2
				c0.1,0,0.2-0.1,0.1-0.2c0.1,0.1,0.1,0.1,0.2,0C38.4,42.8,38.2,42.5,38.1,42.5L38.1,42.5z"/>
			<polygon class="st2" points="37.3,42.9 38.4,42.1 38.4,42.2 37.3,43.1 37.3,42.9 			"/>
			<path class="st2" d="M37.6,42c0.1,0,0.2,0,0.2,0c0,0.1,0.1,0.2,0.1,0.3c0,0-0.1,0-0.1,0C37.8,42.3,37.7,42.2,37.6,42L37.6,42z"/>
			<path class="st2" d="M37.1,43.3c-0.1,0-0.1-0.1,0-0.2c0.1,0,0.2,0,0.3,0c0.1,0.1,0,0.1-0.1,0.2c-0.1,0.2-0.2,0.2-0.3,0.3
				c0,0,0,0,0-0.1C36.9,43.6,37.2,43.4,37.1,43.3L37.1,43.3z M37.2,43.2C37.2,43.2,37.3,43.2,37.2,43.2
				C37.3,43.3,37.2,43.3,37.2,43.2C37.2,43.3,37.2,43.3,37.2,43.2C37.2,43.2,37.2,43.2,37.2,43.2L37.2,43.2z"/>
			<polygon class="st2" points="35.9,43 37.3,42.3 37.3,42.5 35.8,43.1 35.9,43 			"/>
			<polygon class="st2" points="34.6,43 35.9,42.5 35.8,42.6 34.5,43.1 34.6,43 			"/>
			<path class="st2" d="M34.8,43.2c0,0.1-0.1,0.1-0.1,0.2c0.2,0,0.3,0.1,0.4,0.1c-0.2,0.1-0.3,0.3-0.4,0.4c-0.1,0-0.4-0.1-0.5-0.1
				c0.1,0.1,0.3,0.3,0.4,0.3c-0.2,0.4-0.3,0.7,0.3,0.9c0.4,0.1,0.8,0.1,1.1,0c0.3-0.2,0.7-0.3,0.8-0.8c0-0.2-0.1-0.3-0.4-0.3
				c-0.4,0-1,0.2-1.5,0.1c0.1-0.2,0.2-0.2,0.4-0.3c0.2,0.1,0.5,0.2,0.7,0.1c0.1,0,0.2-0.1,0.3-0.3c0.1,0,0.2,0.1,0.3,0.1
				c0.2,0,0.4,0,0.2-0.3c0-0.1-0.1-0.1-0.3-0.2c-0.2-0.1-0.3,0.1-0.3,0.2c-0.1,0.2-0.2,0.3-0.3,0.3c-0.1,0.1-0.4,0.1-0.4,0
				c0-0.1,0.2-0.2,0.2-0.2c0.1,0,0.1-0.2,0.1-0.2C35.8,43.2,35.2,43,34.8,43.2L34.8,43.2z M35,43.4c0.1-0.1,0.3-0.1,0.5,0
				c-0.1,0.1-0.2,0.1-0.3,0.2C35.2,43.4,35.1,43.4,35,43.4L35,43.4z M36.5,43.1c0.1,0,0.2,0.1,0.2,0.2c0,0-0.1,0-0.1,0
				c-0.1,0-0.1,0-0.1-0.1C36.4,43.2,36.4,43.1,36.5,43.1L36.5,43.1z M35.6,44.2c0.5,0,1-0.2,1,0c0,0.2-0.4,0.6-1,0.7
				c-0.5,0.1-1-0.1-0.9-0.5c0,0,0-0.2,0.1-0.3C35,44.1,35.3,44.3,35.6,44.2L35.6,44.2z"/>
			<path class="st2" d="M34.2,45c-0.1,0-0.2-0.2,0.1-0.6c-0.1,0.1-0.1,0.3-0.1,0.4c0,0,0.1-0.1,0.1-0.1c0-0.1,0.1,0.1,0.1,0.2
				C34.4,45,34.4,45,34.2,45C34.3,45,34.2,45,34.2,45L34.2,45z"/>
			<path class="st2" d="M34.3,42.8c0,0.1-0.1,0.1-0.2,0.2c0,0.1,0,0.1,0,0.2c-0.2,0.6-0.4,1.1-0.6,1.6c0.1,0,0.2-0.1,0.3-0.3
				c0.1-0.3,0.3-0.7,0.4-1.1c0,0,0,0.1,0.1,0.1c0,0,0,0,0.1-0.1C34.4,43.5,34.4,42.8,34.3,42.8L34.3,42.8z"/>
			<path class="st2" d="M33.8,43.5c-0.2,0.4-0.7-0.1,0.1-0.3C33.7,43.3,33.4,43.6,33.8,43.5C33.8,43.5,33.8,43.5,33.8,43.5
				L33.8,43.5z"/>
			<path class="st2" d="M34,42.6c-0.1,0,0-0.1,0.1-0.2c0.2,0,0.4,0.1,0.5,0.2c0,0.1-0.2,0.2-0.4,0.2c-0.1,0-0.2,0-0.3,0
				C33.9,42.8,33.9,42.7,34,42.6c0,0.1,0.1,0.1,0.3,0.1c0.1,0,0.1-0.1,0-0.1C34.2,42.6,34.1,42.6,34,42.6L34,42.6z"/>
			<polygon class="st2" points="32.3,42.8 34.1,42.3 34,42.4 32.2,42.9 32.3,42.8 			"/>
			<polygon class="st2" points="32.3,42.3 33.5,42.1 33.4,42.2 32.2,42.4 32.3,42.3 			"/>
			<polygon class="st2" points="30.2,41.5 32.4,41.9 32.2,42 30,41.6 30.2,41.5 			"/>
			<path class="st2" d="M33.7,43c0-0.2,0.1-0.3-0.1-0.3c-0.1,0-0.2,0.1-0.3,0.3c-0.2,0.2-0.3,0.3-0.4,0.4c-0.2,0-0.3,0-0.5,0.1
				c0,0-0.1,0.1-0.1,0.1c0.2,0.1,0.3,0.1,0.5,0.2c-0.2,0.1-0.2,0.2-0.1,0.4c-0.1-0.1-0.3-0.1-0.5-0.1c-0.3-0.1-0.5-0.2-0.4-0.6
				c0.2-0.5,0.5-1,0.7-1.5c-0.1,0-0.2,0-0.3,0.2c-0.3,0.7-0.7,1.4-0.6,1.6c0,0.3,0.3,0.5,0.7,0.5c0.3,0,0.5,0.1,0.7,0.3
				c0.1,0,0.2-0.1,0.3-0.2c0-0.1-0.1-0.3-0.3-0.4c0.1-0.3,0.4-0.2,0.8,0c0.1,0,0.2-0.1,0.3-0.1c-0.3-0.1-0.5-0.3-1-0.3
				c0.3-0.2,0.5-0.4,0.7-0.8C33.6,42.8,33.7,42.8,33.7,43L33.7,43z"/>
			<polygon class="st3" points="33.2,44.8 33.5,44.8 33.5,44.5 33.2,44.5 33.2,44.8 			"/>
			<path class="st2" d="M30.8,43.8c-0.1-0.1-0.1-0.4,0.4-0.6c-0.1,0.1-0.3,0.3-0.3,0.4c0.1,0,0.1,0,0.2-0.1c0.1,0,0,0.2,0,0.3
				C31.1,44,31,44,30.8,43.8C30.9,43.9,30.8,43.9,30.8,43.8L30.8,43.8z"/>
			<polygon class="st3" points="30,41.1 30.2,41.1 30.2,40.9 30,40.9 30,41.1 			"/>
			<polygon class="st3" points="30.2,41.4 30.5,41.4 30.5,41.1 30.2,41.1 30.2,41.4 			"/>
			<path class="st2" d="M30.1,40.5c-0.1,0.1,0-0.1,0.1-0.2c0.2,0,0.4,0.1,0.5,0.2c0,0.1-0.2,0.2-0.4,0.2c-0.1,0-0.2,0-0.3,0
				C30,40.7,30,40.6,30.1,40.5c0,0.1,0.1,0.1,0.3,0.1c0.1,0,0.1-0.1,0-0.1C30.3,40.5,30.2,40.5,30.1,40.5L30.1,40.5z"/>
			<path class="st2" d="M29.7,41c-0.3,0.3-0.6-0.4,0.2-0.3C29.6,40.8,29.3,41,29.7,41C29.7,41,29.7,41,29.7,41L29.7,41z"/>
			<polygon class="st2" points="28.5,41.9 29.6,42.1 29.5,42.2 28.4,42 28.5,41.9 			"/>
			<path class="st2" d="M29.4,41c-0.6,0.1-0.8,0.3-0.7,0.7c0.2,0.2,1.2,0,1,0.2c-0.4,0.3-0.3,0.6,0.1,0.9c0.4,0.2,0.9,0.4,1.3,0.4
				c0.1-0.1,0.2-0.1,0.3-0.2c-0.3,0-0.5,0-0.8-0.1c-0.2-0.3-0.2-0.6,0.1-0.6c0.1,0,0.3,0.1,0.6,0.4c0.3,0,0.4-0.1,0.6-0.2
				c-0.3,0.1-0.5,0-0.8-0.2c-0.3-0.4-0.9-0.2-0.8,0.2c0,0.1,0,0.2,0,0.3c-0.2,0-0.4-0.1-0.5-0.4c0-0.2,0.4-0.4,0.3-0.6
				c-0.2-0.2-0.4-0.3-0.8-0.2c-0.4,0-0.5-0.2-0.3-0.4c0.2-0.1,0.4-0.1,0.5-0.2C29.5,41.1,29.4,41,29.4,41L29.4,41z"/>
			<path class="st2" d="M30.7,40.9c0.1-0.1,0.1-0.1,0.2-0.1c0.1,0.1,0.1,0.2,0,0.4c0.1,0,0.2-0.1,0.3-0.1c0.1,0,0.1,0.1,0.1,0.2
				c0,0-0.1,0.1-0.1,0.1c0-0.1-0.1-0.1-0.1-0.1c0-0.1-0.3,0-0.4,0.1c0,0-0.1,0-0.1-0.1C30.8,41.2,30.8,41,30.7,40.9L30.7,40.9z"/>
			<path class="st2" d="M38.6,36.4c0-0.2,0.1-0.4,0.2-0.6c0.2,0.7,0.1,1.2,0,1.8C38.8,37.3,38.8,36.9,38.6,36.4L38.6,36.4z"/>
			<path class="st2" d="M39.1,36.7c0-0.1,0.1-0.2,0.2-0.3c0.3,0.2,0.1,0.6-0.2,1.2C39.3,37.3,39.4,37,39.1,36.7L39.1,36.7z"/>
			<path class="st2" d="M37.1,33.2c0.1-0.1,0.1-0.2,0.2-0.3c0.2,0.3,0.3,0.6,0.4,0.9c-0.1-0.1-0.1-0.1-0.2-0.2c0.1,1,0.1,1.8,0,2.5
				c0,0.1-0.1,0.3-0.1,0.4c0.1-1,0-2.1-0.1-3.2C37.3,33.3,37.2,33.3,37.1,33.2L37.1,33.2z"/>
			<path class="st2" d="M36.8,35.6c0-0.1,0.1-0.3,0.1-0.4c0.1,0.2,0.3,0.4,0.3,0.7c0,0.3-0.2,0.6-0.6,0.7c-0.2,1-1,1.1-1.4,1.1
				c-1.3-0.1-0.6-1.3-0.6-1.3c-0.2,1.2,1.4,1.1,1.8,0.3c-0.6,0.1-0.8,0-0.8-0.2c0.1-0.6,0.2-0.7,0.5-0.8c0.2,0,0.4,0.1,0.5,0.6
				c0.2-0.1,0.3-0.2,0.4-0.3C37,35.7,36.9,35.6,36.8,35.6L36.8,35.6z M36.3,36.3c-0.1,0.1-0.4,0.1-0.4,0c0-0.2,0-0.3,0.1-0.4
				C36.1,35.8,36.4,36.1,36.3,36.3L36.3,36.3z"/>
			<path class="st2" d="M37.8,35.1c0-0.1,1.2-1,1.2-1l0,0.3c0,0-1.2,1-1.2,0.9C37.7,35.2,37.8,35.1,37.8,35.1L37.8,35.1z"/>
			<path class="st2" d="M38,33.2c-0.1,0.3-0.2,0.5,0,0.7c0.1,0,0.2,0,0.3-0.1c0,0.1,0,0.2-0.1,0.4C37.7,34.6,37.7,33.6,38,33.2
				L38,33.2z"/>
			<path class="st2" d="M38.3,35.4c0,0-0.1-0.1,0-0.2c0.1-0.1,0.2-0.1,0.3,0c0.1,0.1,0.2,0.3,0.2,0.4c0-0.2,0.1-0.3,0.2-0.4
				c0.1-0.1,0.1-0.1,0.2-0.1c0.1,0,0.1,0,0.2,0.1c0,0.1,0,0.2-0.1,0.3c0-0.1-0.1-0.1-0.2-0.1c-0.1,0.1-0.2,0.3-0.3,0.5
				c0,0-0.1,0-0.1,0c0-0.2-0.1-0.3-0.2-0.4C38.4,35.4,38.3,35.4,38.3,35.4L38.3,35.4z"/>
			<path class="st2" d="M34.6,38.9c-0.6,1.6,0.3,1.7,1.2,0.6c0.8-1,1.7-0.7,2.4-1.2c0.2-0.2,0.2-0.3-0.1-0.4
				c-0.3,0.1-0.6,0.2-0.7-0.1c-0.2-0.5-0.1-0.9,0.4-1c0.3,0,0.7,0.2,0.8,1.2c0,0.4-0.1,0.8-1.2,1.1c-0.6,0.1-0.9,0.2-1.3,0.6
				c-0.3,0.3-0.6,0.7-1,0.9C34,41.3,34,39.4,34.6,38.9L34.6,38.9z M37.7,37.6c0.1,0.1,0.3,0.1,0.4,0c0.1-0.3,0-0.4-0.3-0.4
				C37.8,37.2,37.6,37.3,37.7,37.6L37.7,37.6z"/>
			<path class="st2" d="M36.5,39.9c0,0-0.1-0.1,0-0.2c0.1-0.1,0.2-0.1,0.3,0c0.1,0.1,0.2,0.3,0.2,0.4c0-0.2,0.1-0.3,0.2-0.4
				c0.1-0.1,0.1-0.1,0.2-0.1c0.1,0,0.1,0,0.2,0.1c0,0.1,0,0.2-0.1,0.3c0-0.1-0.1-0.1-0.2-0.1c-0.1,0.1-0.2,0.3-0.2,0.5
				c0,0-0.1,0-0.1,0c0-0.2-0.1-0.3-0.2-0.4C36.6,39.8,36.5,39.8,36.5,39.9L36.5,39.9z"/>
			<path class="st2" d="M35,32.5c0,0-0.1-0.1,0-0.2c0.1-0.1,0.2-0.1,0.3,0c0.1,0.1,0.2,0.3,0.2,0.4c0-0.2,0.1-0.3,0.2-0.4
				c0.1-0.1,0.1-0.1,0.2-0.1c0.1,0,0.1,0,0.2,0.1c0,0.1,0,0.2-0.1,0.3c0-0.1-0.1-0.1-0.2-0.1c-0.1,0.1-0.2,0.3-0.2,0.5
				c0,0-0.1,0-0.1,0c0-0.2-0.1-0.3-0.2-0.4C35.1,32.5,35,32.5,35,32.5L35,32.5z"/>
			<path class="st2" d="M32.9,38.1c0.1-0.1,1.5-0.6,1.5-0.6l-0.1,0.2c0,0-1.5,0.6-1.5,0.5C32.8,38.1,32.9,38.1,32.9,38.1L32.9,38.1z
				"/>
			<path class="st2" d="M34.4,32.6c0.1-0.1,0.1-0.2,0.2-0.3c0.2,0.3,0.3,0.6,0.4,0.9c-0.1-0.1-0.1-0.1-0.2-0.2c0.1,1,0.1,1.8,0,2.5
				c0,0.1-0.1,0.3-0.1,0.4c0.1-1,0-2.1-0.1-3.2C34.5,32.8,34.5,32.7,34.4,32.6L34.4,32.6z"/>
			<path class="st2" d="M32.6,39.5c0,0-0.1-0.1,0-0.2c0.1-0.1,0.2-0.1,0.3,0c0.1,0.1,0.2,0.3,0.2,0.4c0-0.2,0.1-0.3,0.2-0.4
				c0.1-0.1,0.1-0.1,0.2-0.1c0.1,0,0.1,0,0.2,0.1c0,0.1,0,0.2-0.1,0.3c0-0.1-0.1-0.1-0.2-0.1c-0.1,0.1-0.2,0.3-0.2,0.5
				c0,0-0.1,0-0.1,0c0-0.2-0.1-0.3-0.2-0.4C32.8,39.5,32.7,39.5,32.6,39.5L32.6,39.5z"/>
			<polygon class="st2" points="37.9,36.1 38.2,35.8 38.5,36.2 38.2,36.5 37.9,36.1 			"/>
			<polygon class="st2" points="36.2,35.2 36.5,34.9 36.8,35.2 36.5,35.5 36.2,35.2 			"/>
			<polygon class="st2" points="35.8,35.2 36,34.9 36.3,35.2 36,35.5 35.8,35.2 			"/>
			<polygon class="st2" points="32.7,36.2 33,35.8 33.3,36.2 33,36.5 32.7,36.2 			"/>
			<path class="st2" d="M36.8,36.9c-0.1,0,0.2-0.3,0.3-0.1c0.1,0.2,0.1,0.5-0.2,0.7C37.1,37,37,36.9,36.8,36.9L36.8,36.9z"/>
			<path class="st2" d="M34,33.3c-0.1,0,0.2-0.3,0.3-0.1c0.1,0.2,0.1,0.5-0.2,0.7C34.3,33.5,34.2,33.3,34,33.3L34,33.3z"/>
			<path class="st2" d="M32.1,39c0-0.1,0.2-0.2,0.3-0.1c0.1,0.1,0,0.4-0.2,0.7c0.1-0.3,0.1-0.4,0.1-0.5c0,0-0.1,0.1-0.1,0.1
				C32.1,39.1,32.1,39,32.1,39L32.1,39z"/>
			<path class="st2" d="M35.1,36.4c-0.1,0,0.2-0.3,0.3-0.1c0.1,0.2,0.1,0.5-0.2,0.7C35.4,36.5,35.3,36.4,35.1,36.4L35.1,36.4z"/>
			<path class="st2" d="M31.4,35.2c0.1,0-0.2,0.3-0.3,0.1c-0.1-0.2-0.1-0.4,0.2-0.6C31.1,35,31.2,35.2,31.4,35.2L31.4,35.2z"/>
			<path class="st2" d="M33,37c0.1,0-0.1,0.2-0.2,0.1c-0.1-0.2,0-0.4,0.2-0.5C32.7,36.8,32.8,37,33,37L33,37z"/>
			<path class="st2" d="M36.1,40.4c0.1,0-0.1,0.2-0.2,0.1c-0.1-0.2,0-0.4,0.2-0.6C35.8,40.2,35.9,40.4,36.1,40.4L36.1,40.4z"/>
			<path class="st2" d="M38.2,39.4c0.1,0-0.1,0.2-0.2,0.1c-0.1-0.2,0-0.4,0.2-0.6C38,39.2,38,39.3,38.2,39.4L38.2,39.4z"/>
			<path class="st2" d="M31.4,37.3c0.1,0-0.2,0.3-0.3,0.1c-0.1-0.3,0-0.6,0.3-0.8C31.1,37,31.1,37.2,31.4,37.3L31.4,37.3z"/>
			<path class="st2" d="M33.9,40c0.1-0.1-0.1,0.4-0.2,0.2c-0.1-0.2-0.1-0.3,0.1-0.5C33.6,40,33.7,40.1,33.9,40L33.9,40z"/>
			<path class="st2" d="M34.9,39.8c-0.1,0-0.1,0-0.2-0.1c-0.1-0.3,0-0.5,0.3-0.8c-0.3,0.4-0.3,0.6-0.1,0.6c0.1,0,0.1-0.1,0.2-0.2
				c0,0.1,0,0.2,0,0.3C35.1,39.7,35,39.8,34.9,39.8L34.9,39.8z"/>
			<path class="st2" d="M37.4,38.1c0.1-0.1-0.1,0.4-0.2,0.2c-0.1-0.2-0.1-0.3,0.1-0.5C37.1,38.2,37.2,38.2,37.4,38.1L37.4,38.1z"/>
			<path class="st2" d="M31.5,34.3c-0.1-0.1,0.2-0.2,0.3-0.4c0,1.4,0,3.5,0.1,4c0.4,0.9,2.1,0.6,2.9,0c0,0.3,0,0.5,0.5,0.5
				c0.3-0.1,0.6-0.3,0.8-0.7c-0.3,0.4,0.4,0.8,0.6,0.4c0-0.1-0.1-0.1-0.1-0.2c0-0.2,0.1-0.3,0.1-0.5c0.2,0.2,0.3,0.6,0.1,0.9
				c-0.3,0.3-0.6,0.4-0.9,0.1c-0.7,0.5-1.1,0.5-1.3,0C33.2,39.2,32,39,31.6,38C31.5,37.7,31.6,34.4,31.5,34.3L31.5,34.3z"/>
			<path class="st2" d="M32.3,36.1C32.3,36.2,32.3,36.1,32.3,36.1c-0.4,1.1,0.5,1.3,0.8,1.2c0.6-0.2,1.2-0.4,0.5-1.2
				c0.1-0.1,0.1-0.1,0.2-0.3c0.1,0.2,0.2,0.3,0.3,0.5c-0.1,0-0.1,0-0.1-0.1c0.1,0.2,0.1,0.4,0.1,0.6c-0.1,0.5-0.3,1-1,1.1
				C31.7,37.9,32.1,36.4,32.3,36.1L32.3,36.1z"/>
			<path class="st2" d="M31,35.4c0,0.6,0.1,0.9,0.3,0.8c0.2,0,0.3-0.3,0.4-0.5c0.2-0.5,0.4-0.6,0.6-0.8c-0.1-0.1-0.2-0.5-0.1-0.8
				c0.1-0.1,0.5,0,0.8,0.3c0,0.2,0,0.3-0.1,0.4c-0.2,0-0.3,0.1-0.4,0.2c0,0.1,0.1,0.2,0.1,0.3c-0.1,0-0.1-0.1-0.2-0.2
				c-0.4,0.3-0.7,0.7-0.8,1c-0.2,0.3-0.4,0.5-0.6,0.3C30.9,36.2,31,35.8,31,35.4L31,35.4z M32.4,34.8c-0.1-0.1-0.1-0.3,0-0.4
				c0.1-0.1,0.3,0,0.4,0.2C32.7,34.8,32.5,34.9,32.4,34.8L32.4,34.8z"/>
			<path class="st2" d="M36.9,33.8c0,0.1,0.1,0.3,0.1,0.4c0,0.2-0.1,0.3-0.1,0.4c-0.3,0.2-0.4,0.1-0.6,0c-0.5,0.5-0.7,0.4-0.9,0.1
				c-0.8,0.9-1.4,0.7-1.6,0c-0.1,1.3-0.9,1.1-1.6,1.1c0.5-0.2,1-0.4,1.3-0.9c0.3-0.4-0.7-0.9-1.2-1.5c0-0.1,0-0.2,0-0.3
				c0.2,0.1,0.4,0.2,0.6,0.3c-0.1,0-0.2,0-0.3,0c0.5,0.3,1.1,0.5,1,1.4c0-0.1,0-0.2,0.1-0.3c0-0.5-0.1-1-0.1-1.4
				c0-0.1-0.1-0.3-0.1-0.4c0-0.1,0-0.2,0.1-0.3c0.1,0.2,0.3,0.4,0.4,0.6c-0.1,0-0.1,0-0.2,0c0,0.6,0,1.1,0.2,1.5
				c0.5,0.6,1,0.2,1.6-0.3c0.1,0.6,0.4,0.3,0.8-0.1c0,0.1,0,0.2,0.3,0.2c0.4,0,0.3-0.1,0.1-0.3C36.7,34,36.8,33.9,36.9,33.8
				L36.9,33.8z"/>
			<path class="st2" d="M32.6,33.3c0,0,0.7-0.7,0.7-0.7l0,0.1c0,0-0.7,0.7-0.7,0.6C32.5,33.3,32.6,33.3,32.6,33.3L32.6,33.3z"/>
			<path class="st2" d="M36.6,32.7c0.1,0-0.1-0.2,0.1-0.2c0.2,0,0.5,0.1,0.5,0.4c-0.4,0.3-0.5,0.2-0.6,0.1c0,0,0,0,0-0.1
				c0.1,0,0.3,0.1,0.4-0.1C36.9,32.7,36.8,32.7,36.6,32.7L36.6,32.7z"/>
			<path class="st2" d="M35,33.8c0.4-0.1,0.7-0.2,1-0.5c-0.1,0-0.2-0.1-0.2-0.2c0.1-0.2,0.2-0.5,0.4-0.4c0.1,0.2,0.1,0.4,0,0.5
				c0,0.1,0.1,0.1,0.1,0.1c0,0.1,0,0.1,0,0.2c-0.1,0-0.1-0.1-0.1-0.1C35.5,33.9,35.3,33.8,35,33.8L35,33.8z M36.2,32.9
				c0.1,0,0.1,0.2,0,0.2c-0.1,0.1,0,0-0.1,0c0,0-0.1,0-0.1-0.1C36,33,36.1,32.9,36.2,32.9L36.2,32.9z"/>
			<path class="st2" d="M34.1,35.8c0,0-0.1,0-0.1-0.1c0.1-0.1,0.3-0.2,0.4-0.1c0,0.3-0.1,0.3-0.2,0.4c0,0,0,0,0,0
				c0.1-0.1,0.2-0.1,0.2-0.3C34.3,35.6,34.2,35.7,34.1,35.8L34.1,35.8z"/>
			<path class="st2" d="M31.9,33.8c0,0-0.1,0-0.1-0.1c0.1-0.1,0.3-0.2,0.4-0.1c0,0.3-0.1,0.3-0.2,0.4c0,0,0,0,0,0
				c0.1-0.1,0.2-0.1,0.2-0.3C32.1,33.7,32,33.7,31.9,33.8L31.9,33.8z"/>
			<path class="st2" d="M24.6,39.6l6-1.9l-0.1-0.2l-6.2,1.4l0.3,0.2l0.2,0.1l0,0l0,0L24.6,39.6L24.6,39.6z M35.3,20.7l0.5,1L35.5,27
				H35l-0.3-5.2L35.3,20.7L35.3,20.7z M36.2,22.4l0.4,0.7L36.1,27h-0.2L36.2,22.4L36.2,22.4z M36.8,23.7l0.3,0.6l-0.5,2.8l-0.2,0
				L36.8,23.7L36.8,23.7z M37.3,24.6l0.3,0.5l-0.4,2l-0.2,0L37.3,24.6L37.3,24.6z M37.8,25.5L38,26l0.5-0.3L38,27.4l-0.6-0.2
				L37.8,25.5L37.8,25.5z M38.9,25.4l0.4-0.3l-0.9,2.4l-0.3-0.1L38.9,25.4L38.9,25.4z M39.8,24.9l0.5-0.3l0.1-0.1L39,27.7l-0.2-0.1
				L39.8,24.9L39.8,24.9z M40.8,24.3l0.7-0.4L39.4,28l-0.2-0.1L40.8,24.3L40.8,24.3z M42.2,23.4l0.9-0.6l0,1.2l-2.8,4.4L40,28.2
				l-0.2-0.1L42.2,23.4L42.2,23.4z M43,24.7l0,0.9l-2.3,3.1l-0.2-0.1L43,24.7L43,24.7z M43,26.1l0,0.6L41.1,29L41,28.9L43,26.1
				L43,26.1z M42.9,27.2l0,0.6l-1.4,1.5l-0.2-0.1L42.9,27.2L42.9,27.2z M42.9,28.2l0,0.6l0.6,0L42.1,30l-0.4-0.4L42.9,28.2
				L42.9,28.2z M43.9,28.7l0.6,0l-2,1.6l-0.2-0.2L43.9,28.7L43.9,28.7z M44.9,28.7l0.6,0l-2.7,2l-0.1-0.2L44.9,28.7L44.9,28.7z
				 M46.1,28.6l0.8,0l-3.8,2.5L43,31L46.1,28.6L46.1,28.6z M47.7,28.6l1.1,0l-0.6,1l-4.7,2.4l-0.1-0.2l-0.1-0.2L47.7,28.6L47.7,28.6
				z M47.8,30.2l-0.4,0.7l-3.6,1.6l-0.1-0.2L47.8,30.2L47.8,30.2z M47.1,31.3l-0.4,0.6l-2.7,1l-0.1-0.2L47.1,31.3L47.1,31.3z
				 M46.5,32.3l-0.3,0.5l-2,0.6l-0.1-0.2L46.5,32.3L46.5,32.3z M46,33.1l-0.3,0.5l0.6,0.3l-1.8,0.4l-0.2-0.6L46,33.1L46,33.1z
				 M46.6,34.1l0.5,0.3l-2.5,0.4l0-0.2L46.6,34.1L46.6,34.1z M47.4,34.5l0.6,0.3l-3.4,0.4V35L47.4,34.5L47.4,34.5z M48.6,35.1
				l0.7,0.4l-4.6,0.3v-0.2L48.6,35.1L48.6,35.1z M49.9,35.8l1,0.5l-0.9,0.5l-0.1,0l-9.9-0.4l0-0.3L49.9,35.8L49.9,35.8z M49.3,37.3
				l-0.7,0.4l-8.5-0.9l0-0.1L49.3,37.3L49.3,37.3z M48,37.9l-0.5,0.3L40,37.1v-0.1L48,37.9L48,37.9z M47,38.4l-0.5,0.2L40,37.3
				l0-0.1L47,38.4L47,38.4z M46.2,38.9l-0.5,0.3l0.3,0.5l-6.1-1.9l0.1-0.2L46.2,38.9L46.2,38.9z M46.2,40l0.3,0.5L39.8,38l0.1-0.1
				L46.2,40L46.2,40z M46.7,40.9l0.3,0.6l-7.4-3.1l0-0.1L46.7,40.9L46.7,40.9z M47.4,41.9l0.4,0.7l-8.2-4l0.1-0.1L47.4,41.9
				L47.4,41.9z M48.2,43.2l0.6,1l-1.1,0l-8.3-5.3l0.1-0.2L48.2,43.2L48.2,43.2z M46.9,44.1l-0.8,0L43,41.8l0.2-0.2L46.9,44.1
				L46.9,44.1z M45.5,44.1l-0.7,0l-2.2-1.8l0.1-0.2L45.5,44.1L45.5,44.1z M44.4,44l-0.6,0l-1.5-1.4l0.2-0.2L44.4,44L44.4,44z
				 M43.5,44l-0.6,0l0,0.6l-1.2-1.4l0.4-0.4L43.5,44L43.5,44z M42.9,45l0,0.6l-1.6-2l0.2-0.2L42.9,45L42.9,45z M43,46l0,0.6l-2-2.8
				l0.2-0.1L43,46L43,46z M43,47.3l0,0.8l-2.5-3.8l0.2-0.1L43,47.3L43,47.3z M43.1,48.8l0,1.1l-0.9-0.6l-2.4-4.7l0.2-0.1l0.2-0.1
				L43.1,48.8L43.1,48.8z M41.5,48.9l-0.7-0.4l-1.6-3.6l0.2-0.1L41.5,48.9L41.5,48.9z M40.3,48.2l-0.5-0.3l-1-2.7l0.2-0.1L40.3,48.2
				L40.3,48.2z M39.4,47.6l-0.5-0.3l-0.7-2l0.2-0.1L39.4,47.6L39.4,47.6z M38.6,47.1l-0.5-0.3l-0.3,0.6l-0.4-1.8l0.6-0.2L38.6,47.1
				L38.6,47.1z M37.6,47.6l-0.3,0.5l-0.4-2.5l0.2,0L37.6,47.6L37.6,47.6z M37.1,48.6l-0.3,0.6l-0.4-3.4l0.2,0L37.1,48.6L37.1,48.6z
				 M36.5,49.6l-0.4,0.7l-0.3-4.6h0.2L36.5,49.6L36.5,49.6z M35.8,51.1l-0.5,1l-0.5-1l0.2-5.3h0.5L35.8,51.1L35.8,51.1z M34.4,50.4
				L34,49.6l0.4-3.9h0.2L34.4,50.4L34.4,50.4z M33.7,49.1l-0.3-0.6l0.5-2.8l0.2,0L33.7,49.1L33.7,49.1z M33.2,48.1L33,47.6l0.4-2
				l0.2,0L33.2,48.1L33.2,48.1z M32.8,47.3l-0.3-0.5L32,47.1l0.6-1.7l0.6,0.2L32.8,47.3L32.8,47.3z M31.6,47.3l-0.5,0.3l0.9-2.4
				l0.2,0.1L31.6,47.3L31.6,47.3z M30.8,47.8l-0.5,0.3l1.4-3.1l0.2,0.1L30.8,47.8L30.8,47.8z M29.7,48.5l-0.7,0.4l2-4.1l0.2,0.1
				L29.7,48.5L29.7,48.5z M28.4,49.3l-0.9,0.6l0-1.1l2.9-4.4l0.2,0.1l0.2,0.1L28.4,49.3L28.4,49.3z M27.5,48l0-0.8l2.3-3.2l0.2,0.1
				L27.5,48L27.5,48z M27.6,46.6l0-0.6l1.8-2.2l0.2,0.1L27.6,46.6L27.6,46.6z M27.6,45.6l0-0.6l1.4-1.5l0.2,0.2L27.6,45.6L27.6,45.6
				z M27.7,44.6l0-0.6l-0.6,0l1.3-1.2l0.4,0.4L27.7,44.6L27.7,44.6z M26.7,44l-0.6,0l1.9-1.6l0.2,0.2L26.7,44L26.7,44z M25.7,44.1
				l-0.6,0l2.7-2l0.1,0.2L25.7,44.1L25.7,44.1z M24.4,44.1l-0.8,0l3.8-2.5l0.2,0.2L24.4,44.1L24.4,44.1z M22.8,44.2l-1.1,0l0.7-1
				l8.7-4.5l0.1,0.2l-1.4,0.9h0l-0.1,0.1L22.8,44.2L22.8,44.2z M22.8,42.6l0.4-0.7l7.7-3.5l0.1,0.1L22.8,42.6L22.8,42.6z M23.5,41.4
				l0.4-0.6l7-2.7l0,0.1L23.5,41.4L23.5,41.4z M24.1,40.5l0.3-0.5l6.3-2.1l0.1,0.1L24.1,40.5L24.1,40.5z M23.8,38.6l-0.3-0.1l7-1.2
				l0,0.1L24,38.7L23.8,38.6L23.8,38.6z M21.7,37.5l-0.5-0.2l9.2-0.6l0,0.1L22,37.6L21.7,37.5L21.7,37.5z M20.4,36.8l-0.8-0.4l1-0.5
				l9.8,0.4l0,0.3l-9.9,0.4L20.4,36.8L20.4,36.8z M21.3,35.5l0.7-0.4l3.9,0.4v0.2L21.3,35.5L21.3,35.5z M22.6,34.8l0.6-0.3l2.8,0.5
				v0.2L22.6,34.8L22.6,34.8z M23.5,34.3l0.5-0.3l2.1,0.4l0,0.2L23.5,34.3L23.5,34.3z M24.4,33.9l0.5-0.3l-0.3-0.5l1.7,0.5l-0.2,0.6
				L24.4,33.9L24.4,33.9z M24.4,32.8l-0.3-0.5l2.4,0.9l-0.1,0.2L24.4,32.8L24.4,32.8z M23.8,31.9l-0.4-0.6l3.2,1.4l-0.1,0.2
				L23.8,31.9L23.8,31.9z M23.1,30.8l-0.4-0.7l4.1,2.1l-0.1,0.2L23.1,30.8L23.1,30.8z M22.3,29.5l-0.6-1l1.1,0l4.4,2.9l-0.1,0.2
				L27,31.9L22.3,29.5L22.3,29.5z M23.6,28.6l0.8,0l3.1,2.3l-0.1,0.2L23.6,28.6L23.6,28.6z M25,28.7l0.6,0l2.2,1.8l-0.1,0.2L25,28.7
				L25,28.7z M26.1,28.7l0.6,0l1.5,1.4L28,30.3L26.1,28.7L26.1,28.7z M27.1,28.8l0.6,0l0-0.6l1.2,1.4L28.4,30L27.1,28.8L27.1,28.8z
				 M27.6,27.8l0-0.6l1.6,2L29,29.3L27.6,27.8L27.6,27.8z M27.6,26.8l0-0.6l2,2.7L29.4,29L27.6,26.8L27.6,26.8z M27.5,25.6l0-0.8
				l2.5,3.8l-0.2,0.1L27.5,25.6L27.5,25.6z M27.5,24l0-1.2l0.9,0.6l2.4,4.7l-0.2,0.1l-0.2,0.1L27.5,24L27.5,24z M29.1,23.8l0.7,0.4
				l1.6,3.6L31.1,28L29.1,23.8L29.1,23.8z M30.2,24.6l0.6,0.4l1,2.7l-0.2,0.1L30.2,24.6L30.2,24.6L30.2,24.6z M31.2,25.2l0.4,0.3
				l0.7,2L32,27.5L31.2,25.2L31.2,25.2z M32,25.7l0.5,0.3l0,0l0,0l0-0.1l0.2-0.4l0.4,1.7l-0.6,0.2L32,25.7L32,25.7z M33,25.1
				l0.3-0.5l0.4,2.5l-0.2,0L33,25.1L33,25.1z M33.4,24.2l0.3-0.6l0.4,3.4l-0.2,0L33.4,24.2L33.4,24.2z M34,23.1l0.4-0.7l0.3,4.6
				h-0.2L34,23.1L34,23.1z M22.5,37.9l8-1v0.1L23,38.2L22.5,37.9L22.5,37.9z M30.5,35.9l-0.8-0.1l0-0.1l0.8,0.1L30.5,35.9L30.5,35.9
				z M30.5,35.6l-0.8-0.1l0-0.2l0.8,0.1L30.5,35.6L30.5,35.6z M30.6,35.3l-0.8-0.2l0-0.2l0.8,0.2L30.6,35.3L30.6,35.3z M30.6,35
				l-0.8-0.2l0-0.1l0.8,0.2L30.6,35L30.6,35z M30.8,34.7L30,34.4l0.1-0.1l0.7,0.3L30.8,34.7L30.8,34.7z M30.9,34.4L30.2,34l0.1-0.1
				l0.7,0.3L30.9,34.4L30.9,34.4z M31,34.1l-0.7-0.4l0.1-0.1l0.7,0.4L31,34.1L31,34.1z M31.2,33.8l-0.7-0.4l0.1-0.1l0.7,0.4
				L31.2,33.8L31.2,33.8z M31.4,33.5L30.8,33l0.1-0.1l0.6,0.5L31.4,33.5L31.4,33.5z M31.6,33.3L31,32.7l0.1-0.1l0.6,0.5L31.6,33.3
				L31.6,33.3z M31.8,33l-0.6-0.6l0.1-0.1l0.5,0.6L31.8,33L31.8,33z M32,32.8l-0.5-0.6l0.1-0.1l0.5,0.6L32,32.8L32,32.8z M32.3,32.6
				L31.8,32l0.1-0.1l0.5,0.6L32.3,32.6L32.3,32.6z M32.6,32.4l-0.4-0.7l0.1-0.1l0.4,0.7L32.6,32.4L32.6,32.4z M32.8,32.2l-0.4-0.7
				l0.1-0.1l0.4,0.7L32.8,32.2L32.8,32.2z M33.1,32l-0.3-0.7l0.1-0.1l0.3,0.7L33.1,32L33.1,32z M33.4,31.9l-0.3-0.7l0.1-0.1l0.3,0.7
				L33.4,31.9L33.4,31.9z M33.7,31.8l-0.2-0.8l0.1,0l0.2,0.8L33.7,31.8L33.7,31.8z M34,31.7l-0.2-0.8l0.2,0l0.2,0.8L34,31.7L34,31.7
				z M34.4,31.6l-0.1-0.8l0.2,0l0.1,0.8L34.4,31.6L34.4,31.6z M34.7,31.6l-0.1-0.8l0.2,0l0.1,0.8L34.7,31.6L34.7,31.6z M35,31.6
				l0-0.8l0.2,0l0,0.8L35,31.6L35,31.6z M35.3,31.6l0-0.8l0.2,0l0,0.8L35.3,31.6L35.3,31.6z M35.7,31.6l0.1-0.8l0.2,0l-0.1,0.8
				L35.7,31.6L35.7,31.6z M36,31.6l0.1-0.8l0.2,0l-0.1,0.8L36,31.6L36,31.6z M36.3,31.7l0.2-0.8l0.2,0l-0.2,0.8L36.3,31.7L36.3,31.7
				z M36.6,31.8l0.2-0.8l0.1,0l-0.2,0.8L36.6,31.8L36.6,31.8z M37,31.9l0.3-0.7l0.1,0.1l-0.3,0.7L37,31.9L37,31.9z M37.3,32l0.3-0.7
				l0.1,0.1l-0.3,0.7L37.3,32L37.3,32z M37.6,32.1l0.4-0.7l0.1,0.1l-0.4,0.7L37.6,32.1L37.6,32.1z M37.8,32.3l0.4-0.7l0.1,0.1
				L38,32.4L37.8,32.3L37.8,32.3z M38.1,32.5l0.5-0.6l0.1,0.1l-0.5,0.6L38.1,32.5L38.1,32.5z M38.4,32.7l0.5-0.6l0.1,0.1l-0.5,0.6
				L38.4,32.7L38.4,32.7z M38.6,32.9l0.6-0.6l0.1,0.1L38.7,33L38.6,32.9L38.6,32.9z M38.8,33.1l0.6-0.5l0.1,0.1l-0.6,0.5L38.8,33.1
				L38.8,33.1z M39.1,33.4l0.6-0.5l0.1,0.1l-0.6,0.5L39.1,33.4L39.1,33.4z M39.2,33.7l0.7-0.4l0.1,0.1l-0.7,0.4L39.2,33.7L39.2,33.7
				z M39.4,33.9l0.7-0.4l0.1,0.1l-0.7,0.4L39.4,33.9L39.4,33.9z M39.6,34.2l0.7-0.3l0.1,0.1l-0.7,0.3L39.6,34.2L39.6,34.2z
				 M39.7,34.5l0.7-0.3l0.1,0.1l-0.7,0.3L39.7,34.5L39.7,34.5z M39.8,34.8l0.8-0.2l0,0.1L39.9,35L39.8,34.8L39.8,34.8z M39.9,35.1
				l0.8-0.2l0,0.1L40,35.3L39.9,35.1L39.9,35.1z M40,35.5l0.8-0.1l0,0.2L40,35.6L40,35.5L40,35.5z M40.1,35.8l0.8-0.1l0,0.2L40.1,36
				L40.1,35.8L40.1,35.8z M30.5,39.4l0.7-0.5l0.1,0.1l-0.7,0.5L30.5,39.4L30.5,39.4z M30.8,39.8l0.6-0.5l0.1,0.1l-0.6,0.5L30.8,39.8
				L30.8,39.8z M31,40.1l0.6-0.5l0.1,0.1l-0.6,0.5L31,40.1L31,40.1z M31.3,40.4l0.6-0.6l0.1,0.1l-0.6,0.6L31.3,40.4L31.3,40.4z
				 M31.6,40.6l0.5-0.6l0.1,0.1l-0.5,0.6L31.6,40.6L31.6,40.6z M31.9,40.9l0.5-0.7l0.1,0.1L32,41L31.9,40.9L31.9,40.9z M32.2,41.1
				l0.4-0.7l0.1,0.1l-0.4,0.7L32.2,41.1L32.2,41.1z M32.5,41.3l0.4-0.7l0.1,0.1l-0.4,0.7L32.5,41.3L32.5,41.3z M32.9,41.5l0.3-0.7
				l0.1,0.1L33,41.5L32.9,41.5L32.9,41.5z M33.3,41.6l0.3-0.7l0.1,0.1l-0.3,0.7L33.3,41.6L33.3,41.6z M33.6,41.8l0.2-0.8l0.1,0
				l-0.2,0.8L33.6,41.8L33.6,41.8z M34,41.9l0.2-0.8l0.2,0l-0.2,0.8L34,41.9L34,41.9z M34.4,41.9l0.1-0.8l0.2,0L34.6,42L34.4,41.9
				L34.4,41.9z M34.8,42l0.1-0.8l0.2,0L35,42L34.8,42L34.8,42z M35.2,42l0-0.8l0.2,0l0,0.8L35.2,42L35.2,42z M35.6,42l-0.1-0.8
				l0.2,0l0.1,0.8L35.6,42L35.6,42z M36,42l-0.1-0.8l0.1,0l0.1,0.8L36,42L36,42z M36.4,41.9l-0.2-0.8l0.2,0l0.2,0.8L36.4,41.9
				L36.4,41.9z M36.7,41.8L36.5,41l0.1,0l0.2,0.8L36.7,41.8L36.7,41.8z M37.1,41.7l-0.2-0.8l0.1,0l0.2,0.8L37.1,41.7L37.1,41.7z
				 M37.5,41.5l-0.3-0.7l0.1-0.1l0.3,0.7L37.5,41.5L37.5,41.5z M37.8,41.4l-0.4-0.7l0.1-0.1l0.4,0.7L37.8,41.4L37.8,41.4z
				 M38.2,41.2l-0.5-0.7l0.1-0.1l0.5,0.7L38.2,41.2L38.2,41.2z M38.5,41l-0.5-0.7l0.1-0.1l0.5,0.7L38.5,41L38.5,41z M38.8,40.7
				l-0.5-0.6l0.1-0.1l0.5,0.6L38.8,40.7L38.8,40.7z M39.1,40.5l-0.6-0.6l0.1-0.1l0.6,0.6L39.1,40.5L39.1,40.5z M39.4,40.2l-0.6-0.5
				l0.1-0.1l0.6,0.5L39.4,40.2L39.4,40.2z M39.7,39.9L39,39.4l0.1-0.1l0.6,0.5L39.7,39.9L39.7,39.9z M39.9,39.6l-0.7-0.4l0.1-0.1
				l0.7,0.4L39.9,39.6L39.9,39.6z M33.2,30.6L33.2,30.6L33.2,30.6C33.2,30.6,33.2,30.6,33.2,30.6L33.2,30.6z M37.5,42.1L37.5,42.1
				L37.5,42.1C37.4,42.1,37.5,42.1,37.5,42.1L37.5,42.1z"/>
		</g>
		<g>
			<g>
				<path class="st3" d="M18.1,48c0.2-0.2,0.5-0.2,0.8-0.2c0.3,0.1,0.5,0.3,0.8,0.6c0.2,0.3,0.4,0.6,0.4,0.9l-0.4,0.3
					c0-0.2-0.1-0.3-0.2-0.5c-0.1-0.2-0.2-0.3-0.2-0.4c-0.1-0.2-0.3-0.3-0.4-0.3c-0.1,0-0.3,0-0.4,0.1c-0.1,0.1-0.2,0.2-0.2,0.3
					c0,0.1,0,0.4,0.1,0.7c0.1,0.3,0.1,0.6,0.1,0.8c-0.1,0.2-0.2,0.4-0.3,0.5c-0.2,0.2-0.5,0.2-0.7,0.2c-0.3-0.1-0.5-0.2-0.7-0.5
					c-0.2-0.3-0.3-0.6-0.4-0.9l0.5-0.1c0.1,0.3,0.2,0.6,0.3,0.8c0.1,0.1,0.2,0.2,0.3,0.3c0.1,0,0.2,0,0.3-0.1
					c0.1-0.1,0.1-0.1,0.1-0.2c0-0.1,0-0.2,0-0.3c0-0.1,0-0.3-0.1-0.5c-0.1-0.3-0.1-0.5-0.1-0.6c0-0.1,0-0.3,0.1-0.4
					C17.9,48.2,18,48.1,18.1,48z"/>
				<path class="st3" d="M17.6,45.2l1,1.7l-3,1.7l-1-1.7l0.4-0.2l0.7,1.2l0.8-0.5l-0.6-1.1l0.4-0.2l0.6,1.1l0.9-0.5l-0.7-1.2
					L17.6,45.2z"/>
				<path class="st3" d="M16.3,42.1l0.2,0.6l-1.1,1.6l0.4,0.2L17,44l0.2,0.5l-3.2,1.2l-0.2-0.5l1.5-0.6c-0.2-0.1-0.5-0.2-0.7-0.2
					L13.3,44l-0.2-0.6c0.9,0.3,1.5,0.5,1.9,0.7L16.3,42.1z"/>
				<path class="st3" d="M13.9,39c0.5-0.1,1-0.1,1.4,0.2c0.4,0.2,0.6,0.6,0.7,1.1c0.1,0.5,0,0.9-0.2,1.3c-0.2,0.3-0.6,0.6-1.2,0.7
					c-0.6,0.1-1,0.1-1.4-0.2c-0.4-0.2-0.6-0.6-0.7-1.1c-0.1-0.5,0-0.9,0.2-1.2C13,39.4,13.4,39.1,13.9,39z M14.4,41.6
					c0.4-0.1,0.7-0.2,0.9-0.4c0.2-0.2,0.2-0.5,0.2-0.8c-0.1-0.3-0.2-0.6-0.5-0.7c-0.2-0.1-0.6-0.1-1-0.1c-0.4,0.1-0.7,0.2-0.9,0.4
					c-0.2,0.2-0.2,0.5-0.2,0.8c0.1,0.3,0.2,0.6,0.5,0.7C13.7,41.7,14,41.7,14.4,41.6z"/>
				<path class="st3" d="M15.6,38l-3.4,0.1l0-0.6l2.9-0.1L15,36l0.5,0L15.6,38z"/>
				<path class="st3" d="M15.7,33.3l-1,0.2l-0.1,1.3l0.9,0.4l-0.1,0.6l-3.3-1.6l0.1-0.6l3.6-0.9L15.7,33.3z M14.3,33.6l-1,0.2
					c-0.1,0-0.2,0-0.3,0.1c-0.1,0-0.2,0-0.3,0.1c0.2,0.1,0.4,0.1,0.6,0.3l0.9,0.4L14.3,33.6z"/>
				<path class="st3" d="M16.6,29.6l-0.2,0.5L15,29.8l-0.4,1.5l1.5,0.4l-0.2,0.5l-3.3-0.9l0.2-0.5l1.3,0.4l0.4-1.5l-1.3-0.4l0.2-0.5
					L16.6,29.6z"/>
				<path class="st3" d="M18.1,26.6l-0.3,0.5l-2.6-1.4l-0.5,0.9l-0.4-0.2l1.2-2.3l0.4,0.2l-0.5,0.9L18.1,26.6z"/>
				<path class="st3" d="M18.9,25.3l-2.8-2l0.3-0.5l2.8,2L18.9,25.3z"/>
				<path class="st3" d="M21.7,21.9l-0.5,0.5l-3.1-0.6l0,0l0.1,0.1c0.2,0.2,0.4,0.4,0.6,0.5l1.3,1.2L19.8,24l-2.5-2.3l0.5-0.5
					l3.1,0.6l0,0c0,0-0.1-0.1-0.3-0.3c-0.2-0.1-0.3-0.3-0.4-0.3L18.8,20l0.3-0.4L21.7,21.9z"/>
				<path class="st3" d="M22.4,19l1-0.8l1,1.4c-0.1,0.2-0.3,0.3-0.4,0.5c-0.1,0.1-0.3,0.3-0.5,0.4c-0.4,0.3-0.8,0.4-1.2,0.4
					c-0.4-0.1-0.8-0.3-1.1-0.8c-0.3-0.4-0.5-0.9-0.4-1.3c0.1-0.4,0.3-0.8,0.8-1.2c0.3-0.2,0.6-0.4,0.9-0.4l0.1,0.5
					c-0.3,0.1-0.6,0.2-0.8,0.3c-0.3,0.2-0.5,0.5-0.5,0.8c0,0.3,0.1,0.6,0.3,0.9c0.3,0.3,0.5,0.5,0.8,0.6c0.3,0.1,0.6,0,0.9-0.2
					c0.1-0.1,0.3-0.2,0.4-0.4L23.2,19l-0.6,0.4L22.4,19z"/>
				<path class="st3" d="M25.6,17l1.1-0.6l0.8,1.5c-0.2,0.2-0.3,0.3-0.5,0.4s-0.3,0.2-0.5,0.3C26,19,25.6,19,25.2,18.9
					c-0.4-0.1-0.7-0.5-1-1c-0.2-0.5-0.3-0.9-0.2-1.4c0.1-0.4,0.5-0.8,1-1c0.3-0.2,0.7-0.3,1-0.3l0,0.5c-0.3,0-0.6,0.1-0.8,0.2
					c-0.3,0.2-0.5,0.4-0.6,0.7c-0.1,0.3,0,0.6,0.1,1c0.2,0.4,0.4,0.6,0.7,0.7c0.3,0.1,0.6,0.1,0.9-0.1c0.2-0.1,0.3-0.2,0.5-0.3
					l-0.4-0.8l-0.6,0.3L25.6,17z"/>
				<path class="st3" d="M28.4,17.9l-1.2-3.2l0.5-0.2l1.2,3.2L28.4,17.9z"/>
				<path class="st3" d="M33.1,16.7l-0.5-0.9L31.4,16l-0.2,1l-0.6,0.1l0.7-3.6l0.6-0.1l1.8,3.2L33.1,16.7z M32.4,15.4L32,14.5
					c0-0.1-0.1-0.2-0.1-0.3c-0.1-0.1-0.1-0.2-0.1-0.3c0,0.2,0,0.4-0.1,0.7l-0.2,0.9L32.4,15.4z"/>
				<path class="st3" d="M35.6,14.8l1.3,0l0,1.7c-0.2,0.1-0.4,0.1-0.6,0.1c-0.2,0-0.4,0-0.6,0c-0.5,0-0.9-0.2-1.2-0.5
					c-0.3-0.3-0.4-0.7-0.4-1.3c0-0.6,0.2-1,0.5-1.3c0.3-0.3,0.8-0.5,1.3-0.4c0.4,0,0.7,0.1,1,0.2l-0.2,0.5c-0.3-0.1-0.6-0.2-0.8-0.2
					c-0.4,0-0.7,0.1-0.9,0.3c-0.2,0.2-0.3,0.5-0.3,0.9c0,0.4,0.1,0.7,0.3,1c0.2,0.2,0.5,0.3,0.8,0.3c0.2,0,0.4,0,0.6-0.1l0-0.9
					l-0.7,0L35.6,14.8z"/>
				<path class="st3" d="M39.7,17.1l-0.2-1l-1.3-0.2l-0.5,0.9l-0.6-0.1l1.9-3.2l0.6,0.1l0.7,3.6L39.7,17.1z M39.5,15.6l-0.2-1
					c0-0.1,0-0.2,0-0.3c0-0.1,0-0.2,0-0.3c-0.1,0.2-0.2,0.4-0.3,0.6l-0.5,0.8L39.5,15.6z"/>
				<path class="st3" d="M42.1,17.8l0.1-3l0,0c-0.1,0.4-0.3,0.8-0.4,1.1l-0.6,1.6l-0.5-0.2l1.2-3.2l0.7,0.3l-0.1,2.9l0,0l1.9-2.2
					l0.7,0.3L44,18.6l-0.5-0.2l0.6-1.6c0.1-0.2,0.1-0.4,0.3-0.6c0.1-0.3,0.2-0.4,0.2-0.5l0,0l-2,2.3L42.1,17.8z"/>
				<path class="st3" d="M46.6,20.1l0.2-1l-1.1-0.7l-0.8,0.6l-0.5-0.3l2.9-2.2l0.5,0.3l-0.7,3.6L46.6,20.1z M46.9,18.7l0.2-1
					c0-0.1,0-0.2,0.1-0.3c0-0.1,0.1-0.2,0.1-0.3c-0.1,0.1-0.3,0.3-0.5,0.4l-0.7,0.6L46.9,18.7z"/>
				<path class="st3" d="M48.4,21.6l2.3-2.5l0.4,0.4L48.8,22L48.4,21.6z"/>
				<path class="st3" d="M51.5,23.5c-0.2,0.2-0.5,0.3-0.8,0.2c-0.3-0.1-0.5-0.2-0.8-0.5s-0.4-0.6-0.5-0.8l0.4-0.4
					c0,0.2,0.1,0.3,0.2,0.5c0.1,0.2,0.2,0.3,0.3,0.4c0.1,0.2,0.3,0.3,0.4,0.3c0.1,0,0.3,0,0.4-0.1c0.1-0.1,0.1-0.2,0.1-0.3
					c0-0.1-0.1-0.4-0.2-0.7C51,21.8,51,21.6,51,21.4c0-0.2,0.1-0.4,0.3-0.5c0.2-0.2,0.5-0.3,0.7-0.2c0.3,0,0.5,0.2,0.7,0.4
					c0.2,0.2,0.4,0.5,0.5,0.9l-0.5,0.2c-0.1-0.3-0.2-0.6-0.4-0.7c-0.1-0.1-0.2-0.2-0.4-0.2c-0.1,0-0.2,0-0.3,0.1
					c-0.1,0.1-0.1,0.1-0.1,0.2c0,0.1,0,0.2,0,0.3c0,0.1,0.1,0.3,0.1,0.5c0.1,0.3,0.1,0.5,0.1,0.6c0,0.1,0,0.3-0.1,0.4
					C51.7,23.3,51.6,23.4,51.5,23.5z"/>
				<path class="st3" d="M51.2,24.7l2.8-1.9l0.3,0.5l-2.4,1.6l0.8,1.2l-0.4,0.3L51.2,24.7z"/>
				<path class="st3" d="M53.5,28.8l0.7-0.7l-0.6-1.2l-1,0.1l-0.3-0.5l3.7-0.3l0.3,0.5l-2.6,2.6L53.5,28.8z M54.6,27.7l0.7-0.7
					c0,0,0.1-0.1,0.2-0.2c0.1-0.1,0.2-0.2,0.2-0.2c-0.2,0-0.4,0.1-0.6,0.1l-0.9,0.1L54.6,27.7z"/>
				<path class="st3" d="M54.3,31.1l2.5-1.7l0,0c-0.4,0.1-0.8,0.2-1.1,0.3l-1.6,0.4L54,29.7l3.3-0.9l0.2,0.8l-2.4,1.6l0,0l2.9,0.3
					l0.2,0.8l-3.3,0.9l-0.1-0.5l1.6-0.4c0.2,0,0.4-0.1,0.6-0.2s0.4-0.1,0.5-0.1l0,0l-3-0.3L54.3,31.1z"/>
				<path class="st3" d="M57.4,37.5c-0.4,0-0.6-0.1-0.8-0.3c-0.2-0.2-0.3-0.6-0.3-1l0-0.4l-1.3,0l0-0.6l3.4-0.1l0,1
					c0,0.4-0.1,0.7-0.2,1C58,37.4,57.8,37.5,57.4,37.5z M56.8,35.8l0,0.3c0,0.3,0.1,0.5,0.2,0.6c0.1,0.1,0.3,0.2,0.5,0.2
					c0.2,0,0.3-0.1,0.4-0.2c0.1-0.1,0.1-0.3,0.1-0.6l0-0.4L56.8,35.8z"/>
				<path class="st3" d="M54.7,40.2l0.3-1.9l3.4,0.5l-0.3,1.9l-0.5-0.1l0.2-1.4l-0.9-0.1l-0.2,1.3l-0.5-0.1l0.2-1.3l-1.1-0.1
					l-0.2,1.4L54.7,40.2z"/>
				<path class="st3" d="M55.7,41.8l-1.3-0.4l0.2-0.5l3.3,1l-0.3,0.9c-0.1,0.4-0.3,0.7-0.5,0.9c-0.2,0.2-0.5,0.2-0.8,0.1
					c-0.4-0.1-0.6-0.4-0.7-0.9l-1.7,0.5l0.2-0.6l1.5-0.4L55.7,41.8z M56.1,42L56,42.3c-0.1,0.3-0.1,0.4,0,0.6
					c0.1,0.1,0.2,0.2,0.4,0.3c0.2,0.1,0.3,0,0.5-0.1c0.1-0.1,0.2-0.3,0.3-0.5l0.1-0.4L56.1,42z"/>
				<path class="st3" d="M53.6,46c-0.3-0.1-0.4-0.3-0.5-0.6s0-0.6,0.1-0.9c0.2-0.4,0.3-0.6,0.6-0.8l0.5,0.2
					c-0.1,0.1-0.3,0.2-0.4,0.4c-0.1,0.1-0.2,0.3-0.3,0.4c-0.1,0.2-0.1,0.4-0.1,0.5c0,0.1,0.1,0.2,0.2,0.3c0.1,0.1,0.2,0.1,0.4,0
					c0.1-0.1,0.3-0.2,0.5-0.4c0.2-0.2,0.5-0.4,0.7-0.4c0.2,0,0.4,0,0.6,0.1c0.3,0.1,0.4,0.3,0.5,0.6c0.1,0.3,0,0.5-0.1,0.8
					c-0.1,0.3-0.3,0.6-0.6,0.8l-0.3-0.4c0.2-0.2,0.4-0.4,0.5-0.7c0.1-0.2,0.1-0.3,0.1-0.4s-0.1-0.2-0.2-0.3c-0.1,0-0.2-0.1-0.2,0
					c-0.1,0-0.2,0-0.2,0.1c-0.1,0.1-0.2,0.2-0.4,0.3c-0.2,0.2-0.4,0.3-0.5,0.4c-0.1,0.1-0.3,0.1-0.4,0.1
					C53.9,46.1,53.8,46.1,53.6,46z"/>
				<path class="st3" d="M52.4,46.2l2.9,1.7l-0.3,0.5l-2.9-1.7L52.4,46.2z"/>
				<path class="st3" d="M51.2,49.6c-0.2-0.2-0.4-0.4-0.4-0.7c0-0.3,0.1-0.6,0.3-0.9c0.2-0.3,0.5-0.5,0.7-0.7l0.4,0.3
					c-0.2,0.1-0.3,0.2-0.4,0.3s-0.3,0.2-0.3,0.4c-0.1,0.2-0.2,0.3-0.2,0.5c0,0.1,0.1,0.2,0.2,0.3c0.1,0.1,0.2,0.1,0.3,0.1
					c0.1,0,0.3-0.1,0.6-0.3c0.3-0.2,0.5-0.3,0.7-0.3c0.2,0,0.4,0.1,0.6,0.2c0.2,0.2,0.3,0.4,0.4,0.6c0,0.3-0.1,0.5-0.3,0.8
					c-0.2,0.3-0.4,0.5-0.8,0.7l-0.3-0.4c0.3-0.2,0.5-0.3,0.6-0.5c0.1-0.1,0.2-0.3,0.2-0.4c0-0.1-0.1-0.2-0.2-0.3
					c-0.1-0.1-0.1-0.1-0.2-0.1c-0.1,0-0.2,0-0.3,0c-0.1,0-0.2,0.1-0.5,0.2c-0.2,0.1-0.4,0.2-0.6,0.3c-0.1,0-0.3,0-0.4,0
					C51.4,49.8,51.3,49.7,51.2,49.6z"/>
			</g>
			<g>
				<g>
					<path class="st3" d="M24.7,53.2l0.9,0.5c0.4,0.2,0.7,0.5,0.8,0.7c0.1,0.2,0.1,0.5,0,0.7c-0.1,0.2-0.2,0.3-0.4,0.4
						c-0.2,0.1-0.3,0.1-0.5,0l0,0c0.2,0.2,0.3,0.3,0.3,0.5c0,0.2,0,0.4-0.1,0.6c-0.1,0.3-0.4,0.4-0.6,0.5c-0.3,0-0.6,0-0.9-0.2
						l-1.1-0.6L24.7,53.2z M24.3,55.1l-0.5,1l0.5,0.3c0.2,0.1,0.4,0.2,0.5,0.1c0.1,0,0.3-0.1,0.4-0.3c0.1-0.2,0.1-0.3,0-0.4
						c-0.1-0.1-0.2-0.3-0.4-0.4L24.3,55.1z M24.5,54.7L25,55c0.2,0.1,0.4,0.2,0.5,0.1c0.1,0,0.2-0.1,0.3-0.3c0.1-0.1,0.1-0.3,0-0.4
						c-0.1-0.1-0.2-0.2-0.4-0.4L25,53.9L24.5,54.7z"/>
					<path class="st3" d="M28.3,58.6l0-1l-1.2-0.4l-0.6,0.8l-0.6-0.2l2.4-2.8l0.6,0.2l0,3.7L28.3,58.6z M28.3,57.1l0-1
						c0-0.1,0-0.2,0-0.3c0-0.1,0-0.2,0-0.3c-0.1,0.2-0.2,0.3-0.4,0.5l-0.6,0.7L28.3,57.1z"/>
					<path class="st3" d="M32.6,59.5l-0.7-0.1l-1.2-3l0,0l0,0.2c0,0.3-0.1,0.6-0.1,0.8l-0.3,1.8L29.8,59l0.6-3.4l0.7,0.1l1.2,3l0,0
						c0,0,0-0.2,0.1-0.4c0-0.2,0.1-0.4,0.1-0.5l0.3-1.8l0.5,0.1L32.6,59.5z"/>
					<path class="st3" d="M36.8,57.9c0,0.6-0.1,1-0.4,1.3c-0.3,0.3-0.8,0.5-1.3,0.5l-1,0l-0.1-3.4l1.1,0c0.5,0,1,0.1,1.3,0.4
						C36.6,56.9,36.7,57.3,36.8,57.9z M36.2,57.9c0-0.8-0.4-1.2-1.2-1.2l-0.5,0l0,2.5l0.4,0C35.8,59.2,36.2,58.7,36.2,57.9z"/>
					<path class="st3" d="M40,55.7l0.4,2.2c0,0.2,0,0.5,0,0.7c-0.1,0.2-0.2,0.4-0.4,0.5c-0.2,0.1-0.4,0.2-0.7,0.3
						c-0.4,0.1-0.8,0-1-0.2c-0.3-0.2-0.4-0.5-0.5-0.9l-0.4-2.2l0.6-0.1l0.4,2.1c0,0.3,0.1,0.5,0.3,0.6c0.2,0.1,0.4,0.1,0.6,0.1
						c0.5-0.1,0.7-0.4,0.6-1l-0.4-2.1L40,55.7z"/>
					<path class="st3" d="M44.6,57.7L44,58l-2.5-2l0,0l0.1,0.1c0.1,0.3,0.2,0.5,0.3,0.7l0.6,1.7L42,58.7l-1.2-3.2l0.6-0.2l2.5,2l0,0
						c0,0-0.1-0.2-0.2-0.4s-0.2-0.4-0.2-0.5L43,54.7l0.5-0.2L44.6,57.7z"/>
					<path class="st3" d="M46.2,54.8l1.1-0.6l0.9,1.5c-0.1,0.2-0.3,0.3-0.4,0.4c-0.1,0.1-0.3,0.2-0.5,0.3c-0.4,0.3-0.9,0.3-1.3,0.2
						c-0.4-0.1-0.7-0.4-1-0.9c-0.3-0.5-0.4-0.9-0.2-1.4c0.1-0.4,0.4-0.8,0.9-1.1c0.3-0.2,0.6-0.3,1-0.3l0.1,0.5
						c-0.3,0-0.6,0.1-0.8,0.3c-0.3,0.2-0.5,0.4-0.6,0.7c-0.1,0.3,0,0.6,0.2,1c0.2,0.4,0.5,0.6,0.7,0.7c0.3,0.1,0.6,0,0.9-0.1
						c0.2-0.1,0.3-0.2,0.5-0.4L47,54.8l-0.6,0.4L46.2,54.8z"/>
				</g>
			</g>
			<polygon class="st2" points="50.4,53.1 49.4,53.6 49.6,52.5 48.8,51.7 49.9,51.5 50.4,50.5 51,51.5 52.1,51.7 51.3,52.5 
				51.5,53.6 			"/>
			<polygon class="st2" points="21.3,53.1 20.2,53.6 20.4,52.5 19.6,51.7 20.8,51.5 21.3,50.5 21.8,51.5 22.9,51.7 22.1,52.5 
				22.3,53.6 			"/>
		</g>
	</g>
</g>
<g>
	<g>
		<path d="M88,21.6h-1.7l-0.4-2.4c-0.4-0.3-0.8-0.5-1.4-0.7s-1.3-0.3-2-0.3c-1.2,0-2.2,0.3-2.8,0.8s-1,1.2-1,2c0,0.7,0.3,1.4,1,1.9
			s1.7,0.9,3.2,1.3c1.8,0.4,3.2,1.1,4.1,2s1.4,1.9,1.4,3.2c0,1.4-0.6,2.5-1.7,3.3s-2.6,1.3-4.4,1.3c-1.3,0-2.5-0.2-3.5-0.6
			s-1.8-1-2.5-1.7v-3.2H78l0.4,2.4c0.4,0.4,1,0.7,1.6,0.9s1.4,0.4,2.2,0.4c1.2,0,2.1-0.2,2.8-0.7s1-1.2,1-2c0-0.8-0.3-1.4-0.9-2
			s-1.6-1-3.1-1.3c-1.8-0.4-3.2-1.1-4.2-1.9s-1.5-1.9-1.5-3.2c0-1.3,0.6-2.4,1.7-3.3s2.6-1.3,4.4-1.3c1.2,0,2.3,0.2,3.3,0.6
			s1.8,0.9,2.4,1.5V21.6z"/>
		<path d="M104.1,16.5v3.8h-2l-0.2-2h-3.8v13.4l1.9,0.3v1.5h-6.1v-1.5l1.9-0.3V18.4H92l-0.2,2h-2v-3.8H104.1z"/>
		<path d="M103,32.1l1.3-0.2l6-15.4h2l5.9,15.4l1.3,0.2v1.5h-4.9v-1.5l1.3-0.2l-1.1-3.1h-6.8l-1.2,3.1l1.3,0.2v1.5H103V32.1z
			 M108.5,26.8h5.4l-2.6-7.3h-0.1L108.5,26.8z"/>
		<path d="M120.8,18v-1.5h6.1V18l-1.9,0.3v13.4l1.9,0.3v1.5h-6.1v-1.5l1.9-0.3V18.4L120.8,18z"/>
		<path d="M136.4,16.5c1.8,0,3.2,0.5,4.2,1.4s1.5,2.2,1.5,3.7c0,1.5-0.5,2.8-1.5,3.7s-2.4,1.4-4.2,1.4h-3.6v5l1.9,0.3v1.5h-6.1v-1.5
			l1.9-0.3V18.4l-1.9-0.3v-1.5h1.9H136.4z M132.8,25h3.6c1.2,0,2-0.3,2.6-0.9s0.9-1.4,0.9-2.3s-0.3-1.7-0.9-2.4s-1.4-0.9-2.6-0.9
			h-3.6V25z"/>
		<path d="M143.8,18v-1.5h6.1V18l-1.9,0.3v13.4l1.9,0.3v1.5h-6.1v-1.5l1.9-0.3V18.4L143.8,18z"/>
		<path d="M165,16.5c1.8,0,3.2,0.4,4.2,1.2s1.5,1.9,1.5,3.5c0,0.8-0.2,1.4-0.7,2s-1.1,1-1.9,1.3c1,0.2,1.8,0.7,2.4,1.5
			s0.9,1.7,0.9,2.8c0,1.6-0.5,2.8-1.5,3.6s-2.4,1.2-4.1,1.2h-8.2v-1.5l1.9-0.3V18.4l-1.9-0.3v-1.5h1.9H165z M161.7,23.8h3.9
			c0.8,0,1.5-0.3,2-0.7s0.8-1.1,0.8-1.9c0-0.9-0.3-1.6-0.9-2.1s-1.4-0.7-2.5-0.7h-3.3V23.8z M161.7,25.6v6.2h4
			c1.1,0,1.9-0.3,2.5-0.8s0.9-1.3,0.9-2.2c0-1-0.2-1.8-0.7-2.4s-1.2-0.9-2.2-0.9H161.7z"/>
		<path d="M173.1,32.1l1.3-0.2l6-15.4h2l5.9,15.4l1.3,0.2v1.5h-4.9v-1.5l1.3-0.2l-1.1-3.1h-6.8l-1.2,3.1l1.3,0.2v1.5h-4.9V32.1z
			 M178.6,26.8h5.4l-2.6-7.3h-0.1L178.6,26.8z"/>
		<path d="M207.6,16.5V18l-1.9,0.3v15.2h-2.3l-8.2-13.2l-0.1,0v11.3l1.9,0.3v1.5h-6.1v-1.5l1.9-0.3V18.4l-1.9-0.3v-1.5h1.9h2.3
			l8.2,13.2l0.1,0V18.4l-1.9-0.3v-1.5h4.2H207.6z"/>
		<path d="M216.3,16.5c2.2,0,4,0.7,5.4,2.1s2,3.1,2,5.3v2.3c0,2.2-0.7,4-2,5.3s-3.1,2-5.4,2h-7.1v-1.5l1.9-0.3V18.4l-1.9-0.3v-1.5
			h1.9H216.3z M213.4,18.4v13.4h2.9c1.6,0,2.8-0.5,3.7-1.6s1.4-2.4,1.4-4v-2.4c0-1.6-0.5-2.9-1.4-4s-2.2-1.6-3.7-1.6H213.4z"/>
		<path d="M231.8,16.5V18l-1.9,0.3v9.8c0,1.3,0.4,2.3,1.1,2.9s1.7,1,2.9,1c1.3,0,2.3-0.3,3.1-1s1.2-1.6,1.2-2.9v-9.8l-1.9-0.3v-1.5
			h4.2h1.9V18l-1.9,0.3v9.8c0,1.9-0.6,3.3-1.8,4.3s-2.8,1.5-4.7,1.5c-1.9,0-3.4-0.5-4.6-1.5s-1.7-2.4-1.7-4.3v-9.8l-1.9-0.3v-1.5
			h1.9H231.8z"/>
		<path d="M260.5,16.5V18l-1.9,0.3v15.2h-2.3l-8.2-13.2l-0.1,0v11.3l1.9,0.3v1.5h-6.1v-1.5l1.9-0.3V18.4l-1.9-0.3v-1.5h1.9h2.3
			l8.2,13.2l0.1,0V18.4l-1.9-0.3v-1.5h4.2H260.5z"/>
		<path d="M275.7,31.7c-0.5,0.5-1.2,1-2.2,1.5s-2.2,0.7-3.8,0.7c-2.3,0-4.1-0.8-5.6-2.4s-2.2-3.7-2.2-6.2v-0.3
			c0-2.6,0.7-4.7,2.1-6.2s3.3-2.4,5.7-2.4c1.3,0,2.4,0.2,3.3,0.6s1.8,0.9,2.4,1.6v3.1h-1.6l-0.6-2.4c-0.4-0.3-0.8-0.6-1.4-0.8
			s-1.2-0.3-2-0.3c-1.8,0-3.3,0.6-4.3,1.9s-1.5,2.9-1.5,4.9v0.3c0,2,0.5,3.7,1.4,4.9s2.3,1.9,4,1.9c0.9,0,1.7-0.1,2.3-0.3
			s1.1-0.4,1.4-0.6v-3.7l-2.8-0.1v-1.7h5.1V31.7z"/>
	</g>
	<g>
		<path d="M78.8,48.4c-0.8-0.2-1.4-0.5-1.8-0.9c-0.4-0.3-0.6-0.8-0.6-1.3c0-0.6,0.2-1,0.7-1.4c0.5-0.4,1-0.6,1.8-0.6
			c0.5,0,0.9,0.1,1.3,0.3c0.4,0.2,0.7,0.5,0.9,0.8c0.2,0.3,0.3,0.7,0.3,1.1h-1c0-0.4-0.1-0.8-0.4-1c-0.3-0.2-0.7-0.4-1.2-0.4
			c-0.5,0-0.8,0.1-1.1,0.3c-0.3,0.2-0.4,0.5-0.4,0.9c0,0.3,0.1,0.5,0.4,0.7c0.2,0.2,0.7,0.4,1.3,0.6c0.6,0.2,1.1,0.4,1.4,0.6
			c0.3,0.2,0.6,0.4,0.7,0.7c0.2,0.3,0.2,0.6,0.2,1c0,0.6-0.2,1-0.7,1.4c-0.5,0.3-1.1,0.5-1.8,0.5c-0.5,0-1-0.1-1.4-0.3
			c-0.4-0.2-0.8-0.4-1-0.8c-0.2-0.3-0.3-0.7-0.3-1.1h1c0,0.4,0.2,0.8,0.5,1c0.3,0.3,0.7,0.4,1.3,0.4c0.5,0,0.9-0.1,1.1-0.3
			c0.3-0.2,0.4-0.5,0.4-0.8c0-0.4-0.1-0.6-0.4-0.8C79.9,48.8,79.5,48.6,78.8,48.4z"/>
		<path d="M84.8,51.7c-0.7,0-1.3-0.2-1.8-0.7c-0.5-0.5-0.7-1.1-0.7-1.9v-0.2c0-0.5,0.1-1,0.3-1.4c0.2-0.4,0.5-0.7,0.8-1
			c0.4-0.2,0.8-0.4,1.2-0.4c0.7,0,1.2,0.2,1.6,0.7s0.6,1.1,0.6,2v0.4h-3.6c0,0.5,0.2,1,0.5,1.3c0.3,0.3,0.7,0.5,1.1,0.5
			c0.3,0,0.6-0.1,0.8-0.2c0.2-0.1,0.4-0.3,0.6-0.5l0.6,0.4C86.3,51.4,85.6,51.7,84.8,51.7z M84.6,46.9c-0.4,0-0.7,0.1-0.9,0.4
			c-0.2,0.3-0.4,0.6-0.5,1.1h2.7v-0.1c0-0.5-0.2-0.8-0.4-1.1C85.3,47,85,46.9,84.6,46.9z"/>
		<path d="M89.4,49.1l-0.6,0.6v1.9h-0.9V44h0.9v4.6l0.5-0.6l1.7-1.8h1.1L90,48.5l2.3,3.1h-1.1L89.4,49.1z"/>
		<path d="M92.8,48.9c0-0.5,0.1-1,0.3-1.4c0.2-0.4,0.5-0.7,0.9-1c0.4-0.2,0.8-0.3,1.3-0.3c0.7,0,1.3,0.3,1.8,0.8
			c0.4,0.5,0.7,1.2,0.7,2V49c0,0.5-0.1,1-0.3,1.4c-0.2,0.4-0.5,0.7-0.9,1c-0.4,0.2-0.8,0.3-1.3,0.3c-0.7,0-1.3-0.3-1.8-0.8
			C93,50.4,92.8,49.8,92.8,48.9L92.8,48.9z M93.7,49c0,0.6,0.1,1.1,0.4,1.4c0.3,0.4,0.6,0.5,1.1,0.5c0.5,0,0.8-0.2,1.1-0.5
			c0.3-0.4,0.4-0.9,0.4-1.5c0-0.6-0.1-1.1-0.4-1.4c-0.3-0.4-0.6-0.5-1.1-0.5c-0.5,0-0.8,0.2-1.1,0.5C93.8,47.8,93.7,48.3,93.7,49z"
			/>
		<path d="M99.8,51.6h-0.9V44h0.9V51.6z"/>
		<path d="M104.5,51.6c-0.1-0.1-0.1-0.3-0.1-0.6c-0.4,0.4-0.9,0.7-1.5,0.7c-0.5,0-1-0.1-1.3-0.4c-0.3-0.3-0.5-0.7-0.5-1.1
			c0-0.6,0.2-1,0.6-1.3c0.4-0.3,1-0.5,1.8-0.5h0.9V48c0-0.3-0.1-0.6-0.3-0.8c-0.2-0.2-0.5-0.3-0.8-0.3c-0.3,0-0.6,0.1-0.8,0.2
			c-0.2,0.2-0.3,0.4-0.3,0.6h-0.9c0-0.3,0.1-0.5,0.3-0.8c0.2-0.2,0.4-0.4,0.8-0.6c0.3-0.1,0.7-0.2,1.1-0.2c0.6,0,1.1,0.2,1.4,0.5
			c0.3,0.3,0.5,0.7,0.5,1.3v2.5c0,0.5,0.1,0.9,0.2,1.2v0.1H104.5z M103,50.9c0.3,0,0.6-0.1,0.8-0.2s0.4-0.3,0.6-0.6V49h-0.7
			c-1.1,0-1.7,0.3-1.7,1c0,0.3,0.1,0.5,0.3,0.7C102.5,50.8,102.7,50.9,103,50.9z"/>
		<path d="M107.6,46.9c0.4-0.5,0.9-0.7,1.6-0.7c1.1,0,1.7,0.6,1.7,1.9v3.5H110v-3.5c0-0.4-0.1-0.7-0.3-0.9c-0.2-0.2-0.4-0.3-0.8-0.3
			c-0.3,0-0.6,0.1-0.8,0.2c-0.2,0.2-0.4,0.4-0.5,0.6v3.8h-0.9V44h0.9V46.9z"/>
		<path d="M119.7,45.2h-2.3v6.4h-0.9v-6.4h-2.3v-0.8h5.6V45.2z"/>
		<path d="M120.6,44.9c0-0.1,0-0.3,0.1-0.4c0.1-0.1,0.2-0.2,0.4-0.2c0.2,0,0.3,0.1,0.4,0.2c0.1,0.1,0.1,0.2,0.1,0.4s0,0.3-0.1,0.4
			c-0.1,0.1-0.2,0.1-0.4,0.1c-0.2,0-0.3,0-0.4-0.1C120.7,45.1,120.6,45,120.6,44.9z M121.6,51.6h-0.9v-5.3h0.9V51.6z"/>
		<path d="M123.9,46.3l0,0.7c0.4-0.5,0.9-0.8,1.6-0.8c1.1,0,1.7,0.6,1.7,1.9v3.5h-0.9v-3.5c0-0.4-0.1-0.7-0.3-0.9
			c-0.2-0.2-0.4-0.3-0.8-0.3c-0.3,0-0.6,0.1-0.8,0.2c-0.2,0.2-0.4,0.4-0.5,0.6v3.8h-0.9v-5.3H123.9z"/>
		<path d="M128.4,48.9c0-0.8,0.2-1.5,0.6-2c0.4-0.5,0.9-0.7,1.5-0.7c0.7,0,1.2,0.2,1.5,0.7l0-0.6h0.8v5.2c0,0.7-0.2,1.2-0.6,1.6
			c-0.4,0.4-1,0.6-1.7,0.6c-0.4,0-0.8-0.1-1.1-0.2c-0.4-0.2-0.6-0.4-0.8-0.7l0.5-0.5c0.4,0.5,0.9,0.7,1.4,0.7c0.4,0,0.8-0.1,1-0.4
			c0.2-0.2,0.4-0.6,0.4-1.1v-0.5c-0.4,0.4-0.9,0.6-1.5,0.6c-0.6,0-1.1-0.3-1.5-0.8C128.6,50.4,128.4,49.8,128.4,48.9z M129.3,49
			c0,0.6,0.1,1.1,0.4,1.4c0.2,0.3,0.6,0.5,1,0.5c0.6,0,1-0.3,1.3-0.8v-2.4c-0.3-0.5-0.7-0.8-1.3-0.8c-0.4,0-0.8,0.2-1,0.5
			C129.5,47.8,129.3,48.3,129.3,49z"/>
		<path d="M134.1,48.9c0-0.8,0.2-1.5,0.6-2c0.4-0.5,0.9-0.7,1.5-0.7c0.7,0,1.2,0.2,1.5,0.7l0-0.6h0.8v5.2c0,0.7-0.2,1.2-0.6,1.6
			c-0.4,0.4-1,0.6-1.7,0.6c-0.4,0-0.8-0.1-1.1-0.2c-0.4-0.2-0.6-0.4-0.8-0.7l0.5-0.5c0.4,0.5,0.9,0.7,1.4,0.7c0.4,0,0.8-0.1,1-0.4
			c0.2-0.2,0.4-0.6,0.4-1.1v-0.5c-0.4,0.4-0.9,0.6-1.5,0.6c-0.6,0-1.1-0.3-1.5-0.8C134.3,50.4,134.1,49.8,134.1,48.9z M135,49
			c0,0.6,0.1,1.1,0.4,1.4c0.2,0.3,0.6,0.5,1,0.5c0.6,0,1-0.3,1.3-0.8v-2.4c-0.3-0.5-0.7-0.8-1.3-0.8c-0.4,0-0.8,0.2-1,0.5
			C135.1,47.8,135,48.3,135,49z"/>
		<path d="M140,44.9c0-0.1,0-0.3,0.1-0.4c0.1-0.1,0.2-0.2,0.4-0.2c0.2,0,0.3,0.1,0.4,0.2c0.1,0.1,0.1,0.2,0.1,0.4s0,0.3-0.1,0.4
			c-0.1,0.1-0.2,0.1-0.4,0.1c-0.2,0-0.3,0-0.4-0.1C140,45.1,140,45,140,44.9z M141,51.6H140v-5.3h0.9V51.6z"/>
		<path d="M149,49.7h-3l-0.7,1.9h-1l2.7-7.2h0.8l2.7,7.2h-1L149,49.7z M146.3,49h2.4l-1.2-3.4L146.3,49z"/>
		<path d="M151.3,48.9c0-0.8,0.2-1.5,0.6-2c0.4-0.5,0.9-0.7,1.5-0.7c0.7,0,1.2,0.2,1.5,0.7l0-0.6h0.8v5.2c0,0.7-0.2,1.2-0.6,1.6
			c-0.4,0.4-1,0.6-1.7,0.6c-0.4,0-0.8-0.1-1.1-0.2c-0.4-0.2-0.6-0.4-0.8-0.7l0.5-0.5c0.4,0.5,0.9,0.7,1.4,0.7c0.4,0,0.8-0.1,1-0.4
			c0.2-0.2,0.4-0.6,0.4-1.1v-0.5c-0.4,0.4-0.9,0.6-1.5,0.6c-0.6,0-1.1-0.3-1.5-0.8C151.5,50.4,151.3,49.8,151.3,48.9z M152.2,49
			c0,0.6,0.1,1.1,0.4,1.4c0.2,0.3,0.6,0.5,1,0.5c0.6,0,1-0.3,1.3-0.8v-2.4c-0.3-0.5-0.7-0.8-1.3-0.8c-0.4,0-0.8,0.2-1,0.5
			C152.3,47.8,152.2,48.3,152.2,49z"/>
		<path d="M160.5,51.6c-0.1-0.1-0.1-0.3-0.1-0.6c-0.4,0.4-0.9,0.7-1.5,0.7c-0.5,0-1-0.1-1.3-0.4c-0.3-0.3-0.5-0.7-0.5-1.1
			c0-0.6,0.2-1,0.6-1.3c0.4-0.3,1-0.5,1.8-0.5h0.9V48c0-0.3-0.1-0.6-0.3-0.8c-0.2-0.2-0.5-0.3-0.8-0.3c-0.3,0-0.6,0.1-0.8,0.2
			c-0.2,0.2-0.3,0.4-0.3,0.6h-0.9c0-0.3,0.1-0.5,0.3-0.8c0.2-0.2,0.4-0.4,0.8-0.6c0.3-0.1,0.7-0.2,1.1-0.2c0.6,0,1.1,0.2,1.4,0.5
			c0.3,0.3,0.5,0.7,0.5,1.3v2.5c0,0.5,0.1,0.9,0.2,1.2v0.1H160.5z M159,50.9c0.3,0,0.6-0.1,0.8-0.2c0.3-0.1,0.4-0.3,0.6-0.6V49h-0.7
			c-1.1,0-1.7,0.3-1.7,1c0,0.3,0.1,0.5,0.3,0.7C158.4,50.8,158.7,50.9,159,50.9z"/>
		<path d="M163.5,46.3l0,0.6c0.4-0.5,0.9-0.7,1.6-0.7c0.7,0,1.3,0.3,1.5,0.9c0.2-0.3,0.4-0.5,0.7-0.6c0.3-0.2,0.6-0.2,1-0.2
			c1.2,0,1.8,0.6,1.8,1.9v3.6h-0.9v-3.5c0-0.4-0.1-0.7-0.3-0.9c-0.2-0.2-0.5-0.3-0.9-0.3c-0.3,0-0.6,0.1-0.8,0.3
			c-0.2,0.2-0.4,0.5-0.4,0.8v3.5h-0.9v-3.5c0-0.8-0.4-1.2-1.1-1.2c-0.6,0-1,0.3-1.2,0.8v3.9h-0.9v-5.3H163.5z"/>
		<path d="M174.8,51.6c-0.1-0.1-0.1-0.3-0.1-0.6c-0.4,0.4-0.9,0.7-1.5,0.7c-0.5,0-1-0.1-1.3-0.4c-0.3-0.3-0.5-0.7-0.5-1.1
			c0-0.6,0.2-1,0.6-1.3c0.4-0.3,1-0.5,1.8-0.5h0.9V48c0-0.3-0.1-0.6-0.3-0.8c-0.2-0.2-0.5-0.3-0.8-0.3c-0.3,0-0.6,0.1-0.8,0.2
			c-0.2,0.2-0.3,0.4-0.3,0.6h-0.9c0-0.3,0.1-0.5,0.3-0.8c0.2-0.2,0.4-0.4,0.8-0.6c0.3-0.1,0.7-0.2,1.1-0.2c0.6,0,1.1,0.2,1.4,0.5
			c0.3,0.3,0.5,0.7,0.5,1.3v2.5c0,0.5,0.1,0.9,0.2,1.2v0.1H174.8z M173.3,50.9c0.3,0,0.6-0.1,0.8-0.2s0.4-0.3,0.6-0.6V49H174
			c-1.1,0-1.7,0.3-1.7,1c0,0.3,0.1,0.5,0.3,0.7C172.8,50.8,173,50.9,173.3,50.9z"/>
		<path d="M180.7,51.6h-0.9v-7.2h0.9V51.6z"/>
		<path d="M185.4,50.2c0-0.2-0.1-0.4-0.3-0.6c-0.2-0.1-0.5-0.3-1-0.4c-0.5-0.1-0.8-0.2-1.1-0.4c-0.3-0.1-0.5-0.3-0.6-0.5
			c-0.1-0.2-0.2-0.4-0.2-0.7c0-0.4,0.2-0.8,0.6-1.1c0.4-0.3,0.8-0.5,1.4-0.5c0.6,0,1.1,0.2,1.5,0.5c0.4,0.3,0.6,0.7,0.6,1.2h-0.9
			c0-0.2-0.1-0.5-0.3-0.6c-0.2-0.2-0.5-0.3-0.8-0.3c-0.3,0-0.6,0.1-0.8,0.2c-0.2,0.1-0.3,0.3-0.3,0.6c0,0.2,0.1,0.4,0.3,0.5
			c0.2,0.1,0.5,0.2,0.9,0.3c0.5,0.1,0.8,0.2,1.1,0.4c0.3,0.1,0.5,0.3,0.6,0.5c0.1,0.2,0.2,0.4,0.2,0.7c0,0.5-0.2,0.9-0.6,1.1
			c-0.4,0.3-0.9,0.4-1.5,0.4c-0.4,0-0.8-0.1-1.1-0.2c-0.3-0.2-0.6-0.4-0.8-0.6c-0.2-0.3-0.3-0.6-0.3-0.9h0.9c0,0.3,0.1,0.5,0.4,0.7
			c0.2,0.2,0.5,0.3,0.9,0.3c0.3,0,0.6-0.1,0.8-0.2C185.3,50.6,185.4,50.4,185.4,50.2z"/>
		<path d="M188.5,51.6h-0.9V44h0.9V51.6z"/>
		<path d="M193.2,51.6c-0.1-0.1-0.1-0.3-0.1-0.6c-0.4,0.4-0.9,0.7-1.5,0.7c-0.5,0-1-0.1-1.3-0.4c-0.3-0.3-0.5-0.7-0.5-1.1
			c0-0.6,0.2-1,0.6-1.3c0.4-0.3,1-0.5,1.8-0.5h0.9V48c0-0.3-0.1-0.6-0.3-0.8c-0.2-0.2-0.5-0.3-0.8-0.3c-0.3,0-0.6,0.1-0.8,0.2
			c-0.2,0.2-0.3,0.4-0.3,0.6h-0.9c0-0.3,0.1-0.5,0.3-0.8c0.2-0.2,0.4-0.4,0.8-0.6c0.3-0.1,0.7-0.2,1.1-0.2c0.6,0,1.1,0.2,1.4,0.5
			c0.3,0.3,0.5,0.7,0.5,1.3v2.5c0,0.5,0.1,0.9,0.2,1.2v0.1H193.2z M191.7,50.9c0.3,0,0.6-0.1,0.8-0.2s0.4-0.3,0.6-0.6V49h-0.7
			c-1.1,0-1.7,0.3-1.7,1c0,0.3,0.1,0.5,0.3,0.7C191.2,50.8,191.4,50.9,191.7,50.9z"/>
		<path d="M196.3,46.3l0,0.6c0.4-0.5,0.9-0.7,1.6-0.7c0.7,0,1.3,0.3,1.5,0.9c0.2-0.3,0.4-0.5,0.7-0.6c0.3-0.2,0.6-0.2,1-0.2
			c1.2,0,1.8,0.6,1.8,1.9v3.6H202v-3.5c0-0.4-0.1-0.7-0.3-0.9c-0.2-0.2-0.5-0.3-0.9-0.3c-0.3,0-0.6,0.1-0.8,0.3
			c-0.2,0.2-0.4,0.5-0.4,0.8v3.5h-0.9v-3.5c0-0.8-0.4-1.2-1.1-1.2c-0.6,0-1,0.3-1.2,0.8v3.9h-0.9v-5.3H196.3z"/>
		<path d="M207.9,48.8v2.8h-0.9v-7.2h2.6c0.8,0,1.4,0.2,1.8,0.6c0.4,0.4,0.7,0.9,0.7,1.6c0,0.7-0.2,1.2-0.7,1.6
			c-0.4,0.4-1.1,0.6-1.9,0.6H207.9z M207.9,48h1.7c0.5,0,0.9-0.1,1.2-0.4c0.3-0.2,0.4-0.6,0.4-1c0-0.4-0.1-0.8-0.4-1
			c-0.3-0.3-0.6-0.4-1.1-0.4h-1.8V48z"/>
		<path d="M215.3,51.7c-0.7,0-1.3-0.2-1.8-0.7c-0.5-0.5-0.7-1.1-0.7-1.9v-0.2c0-0.5,0.1-1,0.3-1.4c0.2-0.4,0.5-0.7,0.8-1
			c0.4-0.2,0.8-0.4,1.2-0.4c0.7,0,1.2,0.2,1.6,0.7s0.6,1.1,0.6,2v0.4h-3.6c0,0.5,0.2,1,0.5,1.3c0.3,0.3,0.7,0.5,1.1,0.5
			c0.3,0,0.6-0.1,0.8-0.2c0.2-0.1,0.4-0.3,0.6-0.5l0.6,0.4C216.9,51.4,216.2,51.7,215.3,51.7z M215.2,46.9c-0.4,0-0.7,0.1-0.9,0.4
			c-0.2,0.3-0.4,0.6-0.5,1.1h2.7v-0.1c0-0.5-0.2-0.8-0.4-1.1C215.9,47,215.6,46.9,215.2,46.9z"/>
		<path d="M221,47.1c-0.1,0-0.3,0-0.4,0c-0.6,0-1,0.3-1.2,0.8v3.8h-0.9v-5.3h0.9l0,0.6c0.3-0.5,0.7-0.7,1.3-0.7c0.2,0,0.3,0,0.4,0.1
			V47.1z"/>
		<path d="M224.9,50.2c0-0.2-0.1-0.4-0.3-0.6c-0.2-0.1-0.5-0.3-1-0.4c-0.5-0.1-0.8-0.2-1.1-0.4c-0.3-0.1-0.5-0.3-0.6-0.5
			c-0.1-0.2-0.2-0.4-0.2-0.7c0-0.4,0.2-0.8,0.6-1.1c0.4-0.3,0.8-0.5,1.4-0.5c0.6,0,1.1,0.2,1.5,0.5c0.4,0.3,0.6,0.7,0.6,1.2h-0.9
			c0-0.2-0.1-0.5-0.3-0.6c-0.2-0.2-0.5-0.3-0.8-0.3c-0.3,0-0.6,0.1-0.8,0.2c-0.2,0.1-0.3,0.3-0.3,0.6c0,0.2,0.1,0.4,0.3,0.5
			c0.2,0.1,0.5,0.2,0.9,0.3c0.5,0.1,0.8,0.2,1.1,0.4c0.3,0.1,0.5,0.3,0.6,0.5c0.1,0.2,0.2,0.4,0.2,0.7c0,0.5-0.2,0.9-0.6,1.1
			c-0.4,0.3-0.9,0.4-1.5,0.4c-0.4,0-0.8-0.1-1.1-0.2c-0.3-0.2-0.6-0.4-0.8-0.6c-0.2-0.3-0.3-0.6-0.3-0.9h0.9c0,0.3,0.1,0.5,0.4,0.7
			c0.2,0.2,0.5,0.3,0.9,0.3c0.3,0,0.6-0.1,0.8-0.2C224.8,50.6,224.9,50.4,224.9,50.2z"/>
		<path d="M227.1,44.9c0-0.1,0-0.3,0.1-0.4c0.1-0.1,0.2-0.2,0.4-0.2c0.2,0,0.3,0.1,0.4,0.2c0.1,0.1,0.1,0.2,0.1,0.4s0,0.3-0.1,0.4
			c-0.1,0.1-0.2,0.1-0.4,0.1c-0.2,0-0.3,0-0.4-0.1C227.1,45.1,227.1,45,227.1,44.9z M228,51.6h-0.9v-5.3h0.9V51.6z"/>
		<path d="M232.6,50.2c0-0.2-0.1-0.4-0.3-0.6c-0.2-0.1-0.5-0.3-1-0.4c-0.5-0.1-0.8-0.2-1.1-0.4c-0.3-0.1-0.5-0.3-0.6-0.5
			c-0.1-0.2-0.2-0.4-0.2-0.7c0-0.4,0.2-0.8,0.6-1.1c0.4-0.3,0.8-0.5,1.4-0.5c0.6,0,1.1,0.2,1.5,0.5c0.4,0.3,0.6,0.7,0.6,1.2h-0.9
			c0-0.2-0.1-0.5-0.3-0.6c-0.2-0.2-0.5-0.3-0.8-0.3c-0.3,0-0.6,0.1-0.8,0.2c-0.2,0.1-0.3,0.3-0.3,0.6c0,0.2,0.1,0.4,0.3,0.5
			s0.5,0.2,0.9,0.3c0.5,0.1,0.8,0.2,1.1,0.4c0.3,0.1,0.5,0.3,0.6,0.5c0.1,0.2,0.2,0.4,0.2,0.7c0,0.5-0.2,0.9-0.6,1.1
			c-0.4,0.3-0.9,0.4-1.5,0.4c-0.4,0-0.8-0.1-1.1-0.2s-0.6-0.4-0.8-0.6c-0.2-0.3-0.3-0.6-0.3-0.9h0.9c0,0.3,0.1,0.5,0.4,0.7
			c0.2,0.2,0.5,0.3,0.9,0.3c0.3,0,0.6-0.1,0.8-0.2C232.5,50.6,232.6,50.4,232.6,50.2z"/>
		<path d="M237.4,51.6v-7.2h2.3c0.8,0,1.4,0.2,1.8,0.5c0.4,0.3,0.6,0.8,0.6,1.4c0,0.3-0.1,0.6-0.3,0.9c-0.2,0.3-0.5,0.5-0.8,0.6
			c0.4,0.1,0.7,0.3,0.9,0.6c0.2,0.3,0.3,0.7,0.3,1.1c0,0.6-0.2,1.2-0.6,1.5c-0.4,0.4-1,0.6-1.8,0.6H237.4z M238.3,47.5h1.4
			c0.4,0,0.7-0.1,1-0.3c0.2-0.2,0.4-0.5,0.4-0.8c0-0.4-0.1-0.7-0.3-0.9c-0.2-0.2-0.6-0.3-1.1-0.3h-1.4V47.5z M238.3,48.2v2.6h1.6
			c0.4,0,0.8-0.1,1-0.3c0.3-0.2,0.4-0.5,0.4-0.9c0-0.9-0.5-1.3-1.4-1.3H238.3z"/>
		<path d="M246.8,51.6c-0.1-0.1-0.1-0.3-0.1-0.6c-0.4,0.4-0.9,0.7-1.5,0.7c-0.5,0-1-0.1-1.3-0.4c-0.3-0.3-0.5-0.7-0.5-1.1
			c0-0.6,0.2-1,0.6-1.3c0.4-0.3,1-0.5,1.8-0.5h0.9V48c0-0.3-0.1-0.6-0.3-0.8c-0.2-0.2-0.5-0.3-0.8-0.3c-0.3,0-0.6,0.1-0.8,0.2
			c-0.2,0.2-0.3,0.4-0.3,0.6h-0.9c0-0.3,0.1-0.5,0.3-0.8c0.2-0.2,0.4-0.4,0.8-0.6c0.3-0.1,0.7-0.2,1.1-0.2c0.6,0,1.1,0.2,1.4,0.5
			c0.3,0.3,0.5,0.7,0.5,1.3v2.5c0,0.5,0.1,0.9,0.2,1.2v0.1H246.8z M245.3,50.9c0.3,0,0.6-0.1,0.8-0.2s0.4-0.3,0.6-0.6V49h-0.7
			c-1.1,0-1.7,0.3-1.7,1c0,0.3,0.1,0.5,0.3,0.7C244.7,50.8,245,50.9,245.3,50.9z"/>
		<path d="M249.9,46.3l0,0.7c0.4-0.5,0.9-0.8,1.6-0.8c1.1,0,1.7,0.6,1.7,1.9v3.5h-0.9v-3.5c0-0.4-0.1-0.7-0.3-0.9
			c-0.2-0.2-0.4-0.3-0.8-0.3c-0.3,0-0.6,0.1-0.8,0.2c-0.2,0.2-0.4,0.4-0.5,0.6v3.8H249v-5.3H249.9z"/>
		<path d="M254.3,48.9c0-0.8,0.2-1.5,0.6-2c0.4-0.5,0.9-0.7,1.5-0.7c0.6,0,1.1,0.2,1.5,0.6V44h0.9v7.6H258l0-0.6
			c-0.4,0.4-0.9,0.7-1.5,0.7c-0.6,0-1.1-0.3-1.5-0.8C254.5,50.4,254.3,49.8,254.3,48.9L254.3,48.9z M255.3,49c0,0.6,0.1,1.1,0.4,1.4
			c0.2,0.3,0.6,0.5,1,0.5c0.6,0,1-0.3,1.3-0.8v-2.5c-0.3-0.5-0.7-0.8-1.3-0.8c-0.4,0-0.8,0.2-1,0.5C255.4,47.8,255.3,48.3,255.3,49z
			"/>
		<path d="M263.6,51.1c-0.4,0.4-0.9,0.6-1.6,0.6c-0.6,0-1-0.2-1.3-0.5c-0.3-0.3-0.4-0.8-0.5-1.5v-3.5h0.9v3.4c0,0.8,0.3,1.2,1,1.2
			c0.7,0,1.2-0.3,1.4-0.8v-3.9h0.9v5.3h-0.9L263.6,51.1z"/>
		<path d="M266.7,46.3l0,0.7c0.4-0.5,0.9-0.8,1.6-0.8c1.1,0,1.7,0.6,1.7,1.9v3.5h-0.9v-3.5c0-0.4-0.1-0.7-0.3-0.9
			c-0.2-0.2-0.4-0.3-0.8-0.3c-0.3,0-0.6,0.1-0.8,0.2c-0.2,0.2-0.4,0.4-0.5,0.6v3.8h-0.9v-5.3H266.7z"/>
		<path d="M271.2,48.9c0-0.8,0.2-1.5,0.6-2c0.4-0.5,0.9-0.7,1.5-0.7c0.7,0,1.2,0.2,1.5,0.7l0-0.6h0.8v5.2c0,0.7-0.2,1.2-0.6,1.6
			c-0.4,0.4-1,0.6-1.7,0.6c-0.4,0-0.8-0.1-1.1-0.2s-0.6-0.4-0.8-0.7l0.5-0.5c0.4,0.5,0.9,0.7,1.4,0.7c0.4,0,0.8-0.1,1-0.4
			c0.2-0.2,0.4-0.6,0.4-1.1v-0.5c-0.4,0.4-0.9,0.6-1.5,0.6c-0.6,0-1.1-0.3-1.5-0.8C271.4,50.4,271.2,49.8,271.2,48.9z M272.1,49
			c0,0.6,0.1,1.1,0.4,1.4c0.2,0.3,0.6,0.5,1,0.5c0.6,0,1-0.3,1.3-0.8v-2.4c-0.3-0.5-0.7-0.8-1.3-0.8c-0.4,0-0.8,0.2-1,0.5
			C272.2,47.8,272.1,48.3,272.1,49z"/>
	</g>
</g>
</svg>
