<?xml version="1.0" encoding="utf-8"?>
<!-- Generator: Adobe Illustrator 21.0.0, SVG Export Plug-In . SVG Version: 6.00 Build 0)  -->
<svg version="1.1" id="Layer_1" xmlns="http://www.w3.org/2000/svg" xmlns:xlink="http://www.w3.org/1999/xlink" x="0px" y="0px" width="100px" height="100px"
	 viewBox="0 0 128.3 128.3" style="enable-background:new 0 0 128.3 128.3;" xml:space="preserve">
<style type="text/css">
	.st0{fill:#C4C4D6;}
	.st1{fill:#FFFFFF;}
</style>
<circle class="st0" cx="64.1" cy="64.1" r="63.9"/>
<g>
	<path class="st1" d="M49.1,37c4.2-4.2,9.2-6.3,15-6.3c5.8,0,10.8,2.1,15,6.3c4.2,4.2,6.3,9.2,6.3,15c0,3.5-0.9,6.9-2.6,10.1
		c-1.7,3.2-4,5.7-6.9,7.6c5.6,2.4,10.1,6.1,13.5,11.1c3.4,5,5.1,10.6,5.1,16.8h-6.1c0-6.7-2.4-12.4-7.1-17.2
		c-4.7-4.7-10.5-7.1-17.2-7.1c-6.7,0-12.4,2.4-17.2,7.1c-4.7,4.7-7.1,10.5-7.1,17.2h-6.1c0-6.2,1.7-11.8,5.1-16.8
		c3.4-5,7.9-8.7,13.5-11.1c-2.9-1.9-5.2-4.4-6.9-7.6c-1.7-3.2-2.6-6.5-2.6-10.1C42.9,46.2,45,41.2,49.1,37z M74.8,41.3
		c-3-3-6.5-4.5-10.7-4.5s-7.7,1.5-10.7,4.5c-3,3-4.5,6.5-4.5,10.7s1.5,7.7,4.5,10.7c3,3,6.5,4.5,10.7,4.5s7.7-1.5,10.7-4.5
		c3-3,4.5-6.5,4.5-10.7S77.8,44.2,74.8,41.3z"/>
</g>
</svg>
