<?xml version="1.0" encoding="utf-8"?>
<!-- Generator: Adobe Illustrator 21.0.0, SVG Export Plug-In . SVG Version: 6.00 Build 0)  -->
<svg version="1.1" id="Layer_1" xmlns="http://www.w3.org/2000/svg" xmlns:xlink="http://www.w3.org/1999/xlink" x="0px" y="0px" width="120px" height="120px"
	 viewBox="0 0 100 100" style="enable-background:new 0 0 100 100;" xml:space="preserve">
<style type="text/css">
	.st0{fill:#C4C4D6;}
	.st1{fill:#FFFFFF;}
</style>
<circle class="st0" cx="50" cy="50" r="49.8"/>
<g>
	<path class="st1" d="M34.7,40.5l2.9-7.1h2l-4,8.9v5.3h-1.8v-5.3l-4-8.9h2L34.7,40.5z"/>
	<path class="st1" d="M49.4,41.7c0,1-0.1,1.9-0.3,2.6c-0.2,0.8-0.5,1.4-0.9,1.9c-0.4,0.5-0.9,0.9-1.5,1.1s-1.2,0.4-2,0.4
		c-0.7,0-1.4-0.1-1.9-0.4s-1.1-0.6-1.5-1.1c-0.4-0.5-0.7-1.1-1-1.9c-0.2-0.8-0.3-1.6-0.3-2.6v-2.5c0-1,0.1-1.9,0.3-2.6
		s0.6-1.4,1-1.9c0.4-0.5,0.9-0.9,1.5-1.1c0.6-0.3,1.2-0.4,1.9-0.4c0.7,0,1.4,0.1,2,0.4c0.6,0.3,1.1,0.6,1.5,1.1
		c0.4,0.5,0.7,1.1,1,1.9s0.3,1.6,0.3,2.6V41.7z M47.7,39.2c0-0.8-0.1-1.4-0.2-2s-0.3-1-0.6-1.4c-0.3-0.4-0.6-0.6-0.9-0.8
		s-0.8-0.3-1.3-0.3c-0.5,0-0.9,0.1-1.2,0.3s-0.7,0.4-0.9,0.8c-0.3,0.4-0.5,0.8-0.6,1.4s-0.2,1.2-0.2,2v2.5c0,0.8,0.1,1.5,0.2,2
		s0.3,1,0.6,1.4c0.3,0.4,0.6,0.6,0.9,0.8s0.8,0.3,1.2,0.3c0.5,0,0.9-0.1,1.3-0.3s0.7-0.4,0.9-0.8s0.4-0.8,0.6-1.4s0.2-1.2,0.2-2
		V39.2z"/>
	<path class="st1" d="M59.7,33.4v10c0,0.8-0.1,1.5-0.4,2s-0.6,1-1,1.4s-0.9,0.6-1.4,0.8c-0.5,0.2-1.1,0.2-1.7,0.2
		c-0.6,0-1.2-0.1-1.7-0.2s-1-0.4-1.4-0.8s-0.7-0.8-0.9-1.4c-0.2-0.6-0.3-1.2-0.3-2v-10h1.8v10c0,0.6,0.1,1,0.2,1.4
		c0.1,0.4,0.3,0.7,0.5,0.9c0.2,0.2,0.5,0.4,0.8,0.5c0.3,0.1,0.7,0.1,1.1,0.1s0.7,0,1.1-0.1c0.3-0.1,0.6-0.2,0.8-0.5
		c0.2-0.2,0.4-0.5,0.5-0.9c0.1-0.4,0.2-0.8,0.2-1.4v-10H59.7z"/>
	<path class="st1" d="M65.7,41.8h-2.5v5.7h-1.8V33.4h4c1.4,0,2.4,0.4,3.2,1.1c0.7,0.7,1.1,1.8,1.1,3.2c0,0.9-0.2,1.6-0.6,2.3
		c-0.4,0.7-0.9,1.1-1.6,1.5l2.7,6v0.1h-1.9L65.7,41.8z M63.2,40.3h2.2c0.4,0,0.8-0.1,1.1-0.2c0.3-0.1,0.6-0.3,0.8-0.6
		c0.2-0.2,0.4-0.5,0.5-0.8c0.1-0.3,0.2-0.7,0.2-1c0-0.4,0-0.8-0.1-1.1c-0.1-0.3-0.2-0.6-0.4-0.9c-0.2-0.2-0.4-0.4-0.8-0.6
		s-0.7-0.2-1.1-0.2h-2.2V40.3z"/>
	<path class="st1" d="M32.8,65h5.6v1.5H31V52.4h1.8V65z"/>
	<path class="st1" d="M48.1,60.7c0,1-0.1,1.9-0.3,2.6c-0.2,0.8-0.5,1.4-0.9,1.9c-0.4,0.5-0.9,0.9-1.5,1.1c-0.6,0.3-1.2,0.4-2,0.4
		c-0.7,0-1.4-0.1-1.9-0.4c-0.6-0.3-1.1-0.6-1.5-1.1c-0.4-0.5-0.7-1.1-1-1.9c-0.2-0.8-0.3-1.6-0.3-2.6v-2.5c0-1,0.1-1.9,0.3-2.6
		s0.6-1.4,1-1.9c0.4-0.5,0.9-0.9,1.5-1.1c0.6-0.3,1.2-0.4,1.9-0.4c0.7,0,1.4,0.1,2,0.4c0.6,0.3,1.1,0.6,1.5,1.1
		c0.4,0.5,0.7,1.1,1,1.9s0.3,1.6,0.3,2.6V60.7z M46.3,58.2c0-0.8-0.1-1.4-0.2-2s-0.3-1-0.6-1.4c-0.3-0.4-0.6-0.6-0.9-0.8
		s-0.8-0.3-1.3-0.3c-0.5,0-0.9,0.1-1.2,0.3s-0.7,0.4-0.9,0.8c-0.3,0.4-0.5,0.8-0.6,1.4s-0.2,1.2-0.2,2v2.5c0,0.8,0.1,1.5,0.2,2
		c0.1,0.6,0.3,1,0.6,1.4c0.3,0.4,0.6,0.6,0.9,0.8c0.4,0.2,0.8,0.3,1.2,0.3c0.5,0,0.9-0.1,1.3-0.3c0.4-0.2,0.7-0.4,0.9-0.8
		c0.3-0.4,0.4-0.8,0.6-1.4c0.1-0.6,0.2-1.2,0.2-2V58.2z"/>
	<path class="st1" d="M58.7,64.8c-0.1,0.2-0.3,0.3-0.5,0.6c-0.2,0.2-0.5,0.4-0.8,0.6c-0.3,0.2-0.7,0.4-1.2,0.5
		c-0.5,0.1-1.1,0.2-1.8,0.2c-0.7,0-1.4-0.1-2-0.4c-0.6-0.2-1.1-0.6-1.6-1.1c-0.4-0.5-0.8-1.1-1-1.9c-0.2-0.7-0.4-1.6-0.4-2.6v-2.7
		c0-4,1.6-6,4.8-6c0.7,0,1.3,0.1,1.8,0.3c0.5,0.2,1,0.5,1.4,0.9c0.4,0.4,0.7,0.8,0.9,1.4c0.2,0.5,0.3,1.1,0.4,1.8H57
		c-0.1-0.9-0.3-1.6-0.7-2.1c-0.4-0.5-1.1-0.7-1.9-0.7c-0.5,0-1,0.1-1.4,0.3c-0.4,0.2-0.7,0.5-0.9,0.8c-0.2,0.4-0.4,0.8-0.5,1.4
		c-0.1,0.5-0.2,1.2-0.2,1.9v2.7c0,0.8,0.1,1.4,0.2,2s0.4,1,0.6,1.4c0.3,0.4,0.6,0.6,1,0.8c0.4,0.2,0.8,0.3,1.3,0.3
		c0.4,0,0.8,0,1-0.1s0.5-0.2,0.7-0.3c0.2-0.1,0.3-0.2,0.4-0.3c0.1-0.1,0.2-0.2,0.3-0.3V61h-2.6v-1.5h4.4V64.8z"/>
	<path class="st1" d="M69.9,60.7c0,1-0.1,1.9-0.3,2.6c-0.2,0.8-0.5,1.4-0.9,1.9c-0.4,0.5-0.9,0.9-1.5,1.1c-0.6,0.3-1.2,0.4-2,0.4
		c-0.7,0-1.4-0.1-1.9-0.4c-0.6-0.3-1.1-0.6-1.5-1.1c-0.4-0.5-0.7-1.1-1-1.9c-0.2-0.8-0.3-1.6-0.3-2.6v-2.5c0-1,0.1-1.9,0.3-2.6
		s0.6-1.4,1-1.9c0.4-0.5,0.9-0.9,1.5-1.1c0.6-0.3,1.2-0.4,1.9-0.4c0.7,0,1.4,0.1,2,0.4c0.6,0.3,1.1,0.6,1.5,1.1
		c0.4,0.5,0.7,1.1,1,1.9s0.3,1.6,0.3,2.6V60.7z M68.1,58.2c0-0.8-0.1-1.4-0.2-2s-0.3-1-0.6-1.4c-0.3-0.4-0.6-0.6-0.9-0.8
		s-0.8-0.3-1.3-0.3c-0.5,0-0.9,0.1-1.2,0.3s-0.7,0.4-0.9,0.8c-0.3,0.4-0.5,0.8-0.6,1.4s-0.2,1.2-0.2,2v2.5c0,0.8,0.1,1.5,0.2,2
		c0.1,0.6,0.3,1,0.6,1.4c0.3,0.4,0.6,0.6,0.9,0.8c0.4,0.2,0.8,0.3,1.2,0.3c0.5,0,0.9-0.1,1.3-0.3c0.4-0.2,0.7-0.4,0.9-0.8
		c0.3-0.4,0.4-0.8,0.6-1.4c0.1-0.6,0.2-1.2,0.2-2V58.2z"/>
</g>
</svg>
